<svg width="12" height="12" viewBox="0 0 12 12" fill="none" xmlns="http://www.w3.org/2000/svg">
<path d="M6 1C8.757 1 11 3.243 11 6C11 8.757 8.757 11 6 11C3.243 11 1 8.757 1 6C1 3.243 3.243 1 6 1ZM6 0C2.6865 0 0 2.6865 0 6C0 9.3135 2.6865 12 6 12C9.3135 12 12 9.3135 12 6C12 2.6865 9.3135 0 6 0ZM4.9835 8.005C5.2655 7.1105 5.7995 6.039 5.894 5.768C6.0305 5.3745 5.7885 5.2 5.024 5.8725L4.854 5.5525C5.726 4.604 7.5215 4.3895 6.9105 5.859C6.529 6.7765 6.256 7.396 6.1 7.874C5.8725 8.5705 6.447 8.288 7.0095 7.7685C7.086 7.8935 7.111 7.934 7.1875 8.078C5.9385 9.267 4.552 9.372 4.9835 8.005V8.005ZM7.3545 3.9205C7.0885 4.147 6.6945 4.142 6.474 3.9095C6.2535 3.677 6.2905 3.3055 6.556 3.079C6.822 2.8525 7.216 2.858 7.4365 3.09C7.656 3.323 7.62 3.6945 7.3545 3.9205Z" fill="#DEDEE0"/>
</svg>
