<svg xmlns="http://www.w3.org/2000/svg" width="460.626" height="432.695" viewBox="0 0 460.626 432.695">
  <g id="Landing_page-amico" data-name="Landing page-amico" transform="translate(-19.664 -42.91)">
    <g id="freepik--Floor--inject-2">
      <path id="Trazado_1020" data-name="Trazado 1020" d="M412.32,247.87c-90.23-52.1-236-52.1-325.7,0s-89.18,136.56,1,188.66,236.07,52.1,325.72,0S502.56,300,412.32,247.87Z" fill="#f5f5f5"/>
    </g>
    <g id="freepik--Shadows--inject-2">
      <path id="Trazado_1021" data-name="Trazado 1021" d="M47.93,357.72c6.67-3.86,17.46-3.86,24.09,0s6.59,10.1-.08,13.95-17.46,3.86-24.09,0S41.25,361.57,47.93,357.72Z" fill="#e0e0e0"/>
      <path id="Trazado_1022" data-name="Trazado 1022" d="M439.12,330.2c7-4,18.31-4,25.27,0s6.91,10.59-.08,14.63-18.32,4-25.27,0S432.12,334.24,439.12,330.2Z" fill="#e0e0e0"/>
      <path id="Trazado_1023" data-name="Trazado 1023" d="M328.71,260.64,72.35,410.34l-10.86-6.27,256.36-149.7Z" fill="#e0e0e0"/>
      <path id="Trazado_1024" data-name="Trazado 1024" d="M396.87,340c-25-14.43-65.37-14.43-90.19,0-21.94,12.74-24.37,32.48-7.41,46.86-13.69-.85-27.87,1.76-38.32,7.83-18.35,10.66-18.25,27.95.21,38.61s48.31,10.66,66.65,0c14.6-8.48,17.51-21.16,8.79-31.35,21,3,44.18-.19,60.56-9.71C422,377.84,421.86,354.45,396.87,340Z" fill="#e0e0e0"/>
    </g>
    <g id="freepik--Pictures--inject-2">
      <path id="Trazado_1025" data-name="Trazado 1025" d="M114.09,93.27,79.01,113.53l.08,26.81,35.08-20.26Z" fill="none"/>
      <path id="Trazado_1026" data-name="Trazado 1026" d="M114.09,93.27l.08,26.81,3.25,1.89-.09-30.57Z" fill="#f0f0f0"/>
      <path id="Trazado_1027" data-name="Trazado 1027" d="M79.09,140.34l.01,3.76,38.32-22.13-3.25-1.89Z" fill="#f5f5f5"/>
      <path id="Trazado_1028" data-name="Trazado 1028" d="M121.25,84.63,75.07,111.29l.11,39.59,46.18-26.66ZM79.1,144.1v-3.76L79,113.53l35.08-20.26,3.24-1.87.09,30.57Z" fill="#e0e0e0"/>
      <path id="Trazado_1029" data-name="Trazado 1029" d="M121.25,84.63,118,82.74,71.82,109.4l3.25,1.89Z" fill="#f5f5f5"/>
      <path id="Trazado_1030" data-name="Trazado 1030" d="M71.82,109.4l.11,39.59,3.25,1.89-.11-39.59Z" fill="#f0f0f0"/>
      <path id="Trazado_1031" data-name="Trazado 1031" d="M389.65,169.56l35.08,20.26-.07,26.81-35.09-20.25Z" fill="none"/>
      <path id="Trazado_1032" data-name="Trazado 1032" d="M389.65,169.56l-.08,26.82-3.25,1.88.09-30.57Z" fill="#f0f0f0"/>
      <path id="Trazado_1033" data-name="Trazado 1033" d="M424.66,216.63l-.01,3.76-38.33-22.13,3.25-1.88Z" fill="#f5f5f5"/>
      <path id="Trazado_1034" data-name="Trazado 1034" d="M382.39,200.51l46.17,26.66.11-39.59L382.5,160.92Zm3.94-2.25.08-30.57,3.24,1.87,35.08,20.26-.07,26.81v3.76Z" fill="#e0e0e0"/>
      <path id="Trazado_1035" data-name="Trazado 1035" d="M382.5,160.92l3.25-1.89,46.17,26.66-3.25,1.89Z" fill="#f5f5f5"/>
      <path id="Trazado_1036" data-name="Trazado 1036" d="M431.92,185.69l-.11,39.59-3.25,1.89.11-39.59Z" fill="#f0f0f0"/>
      <path id="Trazado_1037" data-name="Trazado 1037" d="M168.3,109.81h0l1.26-.62h0Z" fill="none"/>
      <path id="Trazado_1038" data-name="Trazado 1038" d="M167.84,110h0l.46-.22h0Z" fill="none"/>
      <path id="Trazado_1039" data-name="Trazado 1039" d="M182.61,57.56l-9.59,5.54-9.75,5.63,9.75-5.63Z" fill="none"/>
      <path id="Trazado_1040" data-name="Trazado 1040" d="M182.7,89.19l-.02-8.9-.03-8.14.03,8.14Z" fill="none"/>
      <path id="Trazado_1041" data-name="Trazado 1041" d="M169.56,109.19l.27-.13Z" fill="none"/>
      <path id="Trazado_1042" data-name="Trazado 1042" d="M182.81,128.21l-.02-7.44-.02-6.52.02,6.52Z" fill="none"/>
      <path id="Trazado_1043" data-name="Trazado 1043" d="M164.12,111.56q1.84-.66,3.72-1.53h0A38.65,38.65,0,0,1,164.12,111.56Z" fill="none"/>
      <path id="Trazado_1044" data-name="Trazado 1044" d="M154.12,85.03l.08,28.59.05,16.57-.05-16.57Z" fill="none"/>
      <path id="Trazado_1045" data-name="Trazado 1045" d="M182.79,120.76v-6.51l-.3.17-.54.32c-4.81,2.91-9.64,7.47-14.13,12.41-.75.81-1.48,1.64-2.21,2.47-3.79,4.34-7.49,8.94-11.31,13.24v10.52l4.59-2.65a101.06,101.06,0,0,1,23.9-29.97Z" fill="#ebebeb"/>
      <path id="Trazado_1046" data-name="Trazado 1046" d="M182.84,136.91v-8.7a55.191,55.191,0,0,0-9.76,14.35Z" fill="#ebebeb"/>
      <path id="Trazado_1047" data-name="Trazado 1047" d="M173.05,142.56a55.19,55.19,0,0,1,9.76-14.35v-7.45a101.06,101.06,0,0,0-23.89,30l14.15-8.17Z" fill="#fafafa"/>
      <path id="Trazado_1048" data-name="Trazado 1048" d="M167.84,110h0" fill="none" stroke="gray" stroke-linecap="round" stroke-linejoin="round" stroke-width="0"/>
      <path id="Trazado_1049" data-name="Trazado 1049" d="M168.3,109.81h0" fill="none" stroke="gray" stroke-linecap="round" stroke-linejoin="round" stroke-width="0"/>
      <path id="Trazado_1050" data-name="Trazado 1050" d="M163.45,111.79l.67-.23q1.84-.66,3.72-1.53l.46-.22,1.26-.62c.73-.37,1.45-.76,2.18-1.17-.73.41-1.45.8-2.18,1.17l.27-.13c.63-.33,1.27-.68,1.91-1l.41-.23.34-.2a69.829,69.829,0,0,0,9.82-7l.42-.37v-11c-7,3.57-13.85,4.68-19.39,3A17,17,0,0,1,154.12,85l.08,28.59a33.46,33.46,0,0,0,9.25-1.8Z" fill="#fafafa"/>
      <path id="Trazado_1051" data-name="Trazado 1051" d="M167.8,127.15c4.49-4.94,9.32-9.5,14.13-12.41l.54-.32.3-.17v-6.3A136.439,136.439,0,0,0,157,127.53c-.93.89-1.86,1.79-2.79,2.66v12.67c3.82-4.3,7.52-8.9,11.31-13.24C166.32,128.79,167.05,128,167.8,127.15Z" fill="#fafafa"/>
      <path id="Trazado_1052" data-name="Trazado 1052" d="M182.75,108v-7.76l-.42.37a69.829,69.829,0,0,1-9.82,7l-.34.2-.41.23c-.64.36-1.28.71-1.91,1l-.27.13-.17.09h0l.17-.09-1.26.62-.46.22q-1.87.87-3.72,1.53l.7-.26-.7.26-.67.23a33.459,33.459,0,0,1-9.25,1.83l.05,16.57c.93-.87,1.86-1.77,2.79-2.66A136.439,136.439,0,0,1,182.75,108Z" fill="#ebebeb"/>
      <path id="Trazado_1053" data-name="Trazado 1053" d="M182.68,80.29V72.15c-4.41-1-7.83-4.24-9.63-9.05l-9.75,5.63A20.15,20.15,0,0,0,182.68,80.29Z" fill="#fafafa"/>
      <path id="Trazado_1054" data-name="Trazado 1054" d="M163.31,92.15c5.54,1.72,12.41.61,19.39-3v-8.9a20.15,20.15,0,0,1-19.41-11.56L154.09,74V85a17,17,0,0,0,9.22,7.15Z" fill="#ebebeb"/>
      <path id="Trazado_1055" data-name="Trazado 1055" d="M184.21,54.79,152.47,73.12l.24,83,31.74-18.32Zm-29.9,98.59V130.19l-.05-16.57L154.12,85V74l9.18-5.3,9.7-5.6,9.59-5.54v79.35l-9.79,5.65h0l-14.15,8.17Z" fill="#fff"/>
      <path id="Trazado_1056" data-name="Trazado 1056" d="M169.36,109.29h0" fill="none" stroke="gray" stroke-linecap="round" stroke-linejoin="round" stroke-width="0"/>
      <path id="Trazado_1057" data-name="Trazado 1057" d="M169.39,109.28l.17-.09" fill="none" stroke="gray" stroke-linecap="round" stroke-linejoin="round" stroke-width="0"/>
      <path id="Trazado_1058" data-name="Trazado 1058" d="M171.74,108c-.73.41-1.45.8-2.18,1.17" fill="none" stroke="gray" stroke-linecap="round" stroke-linejoin="round" stroke-width="0"/>
      <line id="Línea_1" data-name="Línea 1" transform="translate(169.56 109.19)" fill="none" stroke="gray" stroke-linecap="round" stroke-linejoin="round" stroke-width="0"/>
      <path id="Trazado_1059" data-name="Trazado 1059" d="M164.12,111.56l.7-.26" fill="none" stroke="gray" stroke-linecap="round" stroke-linejoin="round" stroke-width="0"/>
      <path id="Trazado_1060" data-name="Trazado 1060" d="M182.65,72.15V57.56L173,63.1C174.82,67.91,178.24,71.12,182.65,72.15Z" fill="#ebebeb"/>
      <path id="Trazado_1061" data-name="Trazado 1061" d="M184.45,137.82l-31.74,18.33v2.21l33.64-19.43Z" fill="#cacaca"/>
      <path id="Trazado_1062" data-name="Trazado 1062" d="M184.21,54.79l.24,83.03,1.9,1.11-.24-85.23Z" fill="#f0f0f0"/>
      <path id="Trazado_1063" data-name="Trazado 1063" d="M191.22,44.86,147.33,70.19l.28,97,43.88-25.34Zm-38.51,113.5v-2.21l-.24-83,31.74-18.33,1.9-1.09.25,85.23Z" fill="#e0e0e0"/>
      <path id="Trazado_1064" data-name="Trazado 1064" d="M191.22,44.86l-3.62-1.95L143.72,68.25l3.62,1.94Z" fill="#f5f5f5"/>
      <path id="Trazado_1065" data-name="Trazado 1065" d="M143.72,68.25l.27,97,3.62,1.94-.27-97Z" fill="#f0f0f0"/>
      <path id="Trazado_1066" data-name="Trazado 1066" d="M102.95,103.45l9.56,7.53.02,7.36L80.71,136.72l-.02-7.36,6.07-12.05,5.44,4.23-1.92,5.98,2.79-5.31Z" fill="#e0e0e0"/>
      <path id="Trazado_1067" data-name="Trazado 1067" d="M92.49,107.16c1.5-.86,2.72-.17,2.73,1.55a6,6,0,0,1-2.71,4.68c-1.5.87-2.71.17-2.72-1.55a6,6,0,0,1,2.7-4.68Z" fill="#e0e0e0"/>
      <path id="Trazado_1068" data-name="Trazado 1068" d="M400.8,179.74l-9.57,7.54-.02,7.36,31.82,18.37.02-7.36-6.06-12.05-5.45,4.23,1.93,5.98-2.8-5.31Z" fill="#e0e0e0"/>
      <path id="Trazado_1069" data-name="Trazado 1069" d="M411.25,183.45c-1.5-.86-2.72-.17-2.72,1.55a6,6,0,0,0,2.7,4.69c1.5.86,2.72.17,2.72-1.56a5.94,5.94,0,0,0-2.7-4.68Z" fill="#e0e0e0"/>
    </g>
    <g id="freepik--Plants--inject-2">
      <path id="Trazado_1070" data-name="Trazado 1070" d="M43.77,335.54l16.16.48,16.16-.48c.7,10.92-1.43,22-4.37,27.47h0a7.41,7.41,0,0,1-3.2,3.26C63.74,369,56,369,51.3,366.27a7.23,7.23,0,0,1-3.2-3.34C45.19,357.46,43.08,346.4,43.77,335.54Z" fill="#fff"/>
      <path id="Trazado_1071" data-name="Trazado 1071" d="M48.54,328.93c-6.33,3.65-6.36,9.58-.07,13.23s16.52,3.66,22.85,0,6.37-9.58.08-13.23S54.88,325.27,48.54,328.93Z" fill="#ebebeb"/>
      <path id="Trazado_1072" data-name="Trazado 1072" d="M51.05,330.38c-4.94,2.85-5,7.48-.06,10.33s12.89,2.85,17.83,0,5-7.48.06-10.33S56,327.53,51.05,330.38Z" fill="#e0e0e0"/>
      <g id="Grupo_29" data-name="Grupo 29" opacity="0.15">
        <path id="Trazado_1073" data-name="Trazado 1073" d="M51.05,330.38c-4.94,2.85-5,7.48-.06,10.33s12.89,2.85,17.83,0,5-7.48.06-10.33S56,327.53,51.05,330.38Z"/>
      </g>
      <path id="Trazado_1074" data-name="Trazado 1074" d="M33.36,266.59c36.42,11.92,36.75,36.28,28.54,53.63-2.07,3.52-8.34,5.4-13.79-16.18l9.57,1.23-11.15-5.65L43.63,291l9.3.69-11.8-5a175,175,0,0,0-7.77-20.1Z" fill="#005bea"/>
      <path id="Trazado_1075" data-name="Trazado 1075" d="M33.36,266.59c36.42,11.92,36.75,36.28,28.54,53.63-2.07,3.52-8.34,5.4-13.79-16.18l9.57,1.23-11.15-5.65L43.63,291l9.3.69-11.8-5a175,175,0,0,0-7.77-20.1Z" opacity="0.2"/>
      <path id="Trazado_1076" data-name="Trazado 1076" d="M33.36,266.59c36.42,11.92,36.75,36.28,28.54,53.63-2.07,3.52-8.34,5.4-13.79-16.18l9.57,1.23-11.15-5.65L43.63,291l9.3.69-11.8-5a175,175,0,0,0-7.77-20.1Z" fill="#fff" opacity="0.2"/>
      <path id="Trazado_1077" data-name="Trazado 1077" d="M43.66,272.68C62.87,287.26,64.6,304,59.18,321.41,61.1,306.05,63.17,290.52,43.66,272.68Z" fill="#fff"/>
      <path id="Trazado_1078" data-name="Trazado 1078" d="M95.05,291.34c-35.9,5.05-40.26,27.68-35.49,45.21,1.34,3.61,6.86,6.41,15.53-12.78L66,323.32l11.32-3.41,4.13-7.58-8.77-.9,11.81-2.66a163.559,163.559,0,0,1,10.56-17.43Z" fill="#005bea"/>
      <path id="Trazado_1079" data-name="Trazado 1079" d="M95.05,291.34c-35.9,5.05-40.26,27.68-35.49,45.21,1.34,3.61,6.86,6.41,15.53-12.78L66,323.32l11.32-3.41,4.13-7.58-8.77-.9,11.81-2.66a163.559,163.559,0,0,1,10.56-17.43Z" fill="#fff" opacity="0.2"/>
      <path id="Trazado_1080" data-name="Trazado 1080" d="M95.05,291.34c-35.9,5.05-40.26,27.68-35.49,45.21,1.34,3.61,6.86,6.41,15.53-12.78L66,323.32l11.32-3.41,4.13-7.58-8.77-.9,11.81-2.66a163.559,163.559,0,0,1,10.56-17.43Z" opacity="0.1"/>
      <path id="Trazado_1081" data-name="Trazado 1081" d="M84.44,295.3C64.13,305.68,59.74,321,61.9,338.11,62.66,323.48,63.31,308.67,84.44,295.3Z" fill="#fff"/>
      <path id="Trazado_1082" data-name="Trazado 1082" d="M22.86,299.82c32.92.54,39.38,20.45,37,36.77-.8,3.41-5.47,6.55-15.42-9.77l8.16-1.43-10.59-1.8-4.57-6.37,7.8-1.79L34.3,314.35A150.2,150.2,0,0,0,22.86,299.82Z" fill="#005bea"/>
      <path id="Trazado_1083" data-name="Trazado 1083" d="M32.86,302.2C52.32,309.29,58,322.56,58,338.26,55.64,325.17,53.4,311.89,32.86,302.2Z" fill="#fff"/>
      <path id="Trazado_1084" data-name="Trazado 1084" d="M22.86,299.82c32.92.54,39.38,20.45,37,36.77-.8,3.41-5.47,6.55-15.42-9.77l8.16-1.43-10.59-1.8-4.57-6.37,7.8-1.79L34.3,314.35A150.2,150.2,0,0,0,22.86,299.82Z" fill="#fff" opacity="0.2"/>
      <path id="Trazado_1085" data-name="Trazado 1085" d="M434.77,306.94l16.94.5,17-.5c.73,11.45-1.5,23.11-4.58,28.81h0a7.72,7.72,0,0,1-3.35,3.41c-5,2.89-13.08,2.89-18,0a7.51,7.51,0,0,1-3.35-3.5C436.25,329.93,434,318.33,434.77,306.94Z" fill="#fff"/>
      <path id="Trazado_1086" data-name="Trazado 1086" d="M439.77,300c-6.64,3.84-6.68,10.05-.08,13.89s17.33,3.83,24,0,6.67-10.05.08-13.89S446.41,296.17,439.77,300Z" fill="#ebebeb"/>
      <path id="Trazado_1087" data-name="Trazado 1087" d="M442.4,301.53c-5.18,3-5.21,7.84-.07,10.83s13.52,3,18.7,0,5.21-7.84.06-10.83S447.58,298.54,442.4,301.53Z" fill="#e0e0e0"/>
      <g id="Grupo_30" data-name="Grupo 30" opacity="0.15">
        <path id="Trazado_1088" data-name="Trazado 1088" d="M442.4,301.53c-5.18,3-5.21,7.84-.07,10.83s13.52,3,18.7,0,5.21-7.84.06-10.83S447.58,298.54,442.4,301.53Z"/>
      </g>
      <path id="Trazado_1089" data-name="Trazado 1089" d="M460.36,272.26c2.75-3.42,5.95-6.49,8.48-10.09,1.73-2.46,3.17-5.46,2.44-8.37a7.5,7.5,0,0,0-5.93-5.23,11.38,11.38,0,0,0-8,1.78,24.28,24.28,0,0,0-6,5.73,59.81,59.81,0,0,0-12.6,42.7,9,9,0,0,0,1.58,4.91,4.89,4.89,0,0,0,5.06,1.55c4.62-1.37,4-7.61,4.76-11.27a51.089,51.089,0,0,1,10.19-21.71Z" fill="#005bea"/>
      <path id="Trazado_1090" data-name="Trazado 1090" d="M460.36,272.26c2.75-3.42,5.95-6.49,8.48-10.09,1.73-2.46,3.17-5.46,2.44-8.37a7.5,7.5,0,0,0-5.93-5.23,11.38,11.38,0,0,0-8,1.78,24.28,24.28,0,0,0-6,5.73,59.81,59.81,0,0,0-12.6,42.7,9,9,0,0,0,1.58,4.91,4.89,4.89,0,0,0,5.06,1.55c4.62-1.37,4-7.61,4.76-11.27a51.089,51.089,0,0,1,10.19-21.71Z" fill="#fff" opacity="0.2"/>
      <path id="Trazado_1091" data-name="Trazado 1091" d="M445.12,300.59a.41.41,0,0,0,.33-.38c.32-7.41,2.73-32.7,20.16-47a.4.4,0,0,0,.06-.57.41.41,0,0,0-.57-.06c-17.69,14.57-20.13,40.15-20.46,47.65a.41.41,0,0,0,.39.42Z" fill="#f0f0f0"/>
      <path id="Trazado_1092" data-name="Trazado 1092" d="M442.58,301.4a12.34,12.34,0,0,0,5.66,7.84,15.91,15.91,0,0,0,8.56,1.44,37.873,37.873,0,0,0,8.7-2.06c1.39-.47,2.95-1.11,3.1-2.84a3.08,3.08,0,0,0-1-2.44,11.454,11.454,0,0,0-.9-.78.89.89,0,0,1,.47-1.6,20.749,20.749,0,0,0,2.48-.31,10.89,10.89,0,0,0,5.2-2.35,8.71,8.71,0,0,0,2.41-3.56c.42-1.16.54-2.62-.35-3.49a3.76,3.76,0,0,0-1.92-.84c-.62-.13-1.24-.25-1.87-.35a.83.83,0,0,1-.19-1.58l2.63-1.09a4.94,4.94,0,0,0,2-1.24,4.33,4.33,0,0,0,.51-3.62c-.32-1.65-.89-3.23-1.28-4.87a10.46,10.46,0,0,1-.17-5,41.731,41.731,0,0,0-14.73,1,10.6,10.6,0,0,0-4,1.76c-1.64,1.31-2.06,3.28-1.89,5.41a.38.38,0,0,1-.71.2l-1.7-3.03a2,2,0,0,0-2.62-.84,12.1,12.1,0,0,0-3.84,3,6.66,6.66,0,0,0-1.64,4.92,43,43,0,0,0,1.22,7.22.66.66,0,0,1-1,.7l-.08-.05a2.23,2.23,0,0,0-1.59-.46c-1.48.18-1.86,1.68-2,3a25,25,0,0,0,.54,5.91Z" fill="#005bea"/>
      <path id="Trazado_1093" data-name="Trazado 1093" d="M442.58,301.4a12.34,12.34,0,0,0,5.66,7.84,15.91,15.91,0,0,0,8.56,1.44,37.873,37.873,0,0,0,8.7-2.06c1.39-.47,2.95-1.11,3.1-2.84a3.08,3.08,0,0,0-1-2.44,11.454,11.454,0,0,0-.9-.78.89.89,0,0,1,.47-1.6,20.749,20.749,0,0,0,2.48-.31,10.89,10.89,0,0,0,5.2-2.35,8.71,8.71,0,0,0,2.41-3.56c.42-1.16.54-2.62-.35-3.49a3.76,3.76,0,0,0-1.92-.84c-.62-.13-1.24-.25-1.87-.35a.83.83,0,0,1-.19-1.58l2.63-1.09a4.94,4.94,0,0,0,2-1.24,4.33,4.33,0,0,0,.51-3.62c-.32-1.65-.89-3.23-1.28-4.87a10.46,10.46,0,0,1-.17-5,41.731,41.731,0,0,0-14.73,1,10.6,10.6,0,0,0-4,1.76c-1.64,1.31-2.06,3.28-1.89,5.41a.38.38,0,0,1-.71.2l-1.7-3.03a2,2,0,0,0-2.62-.84,12.1,12.1,0,0,0-3.84,3,6.66,6.66,0,0,0-1.64,4.92,43,43,0,0,0,1.22,7.22.66.66,0,0,1-1,.7l-.08-.05a2.23,2.23,0,0,0-1.59-.46c-1.48.18-1.86,1.68-2,3a25,25,0,0,0,.54,5.91Z" opacity="0.2"/>
      <path id="Trazado_1094" data-name="Trazado 1094" d="M442.58,301.4a12.34,12.34,0,0,0,5.66,7.84,15.91,15.91,0,0,0,8.56,1.44,37.873,37.873,0,0,0,8.7-2.06c1.39-.47,2.95-1.11,3.1-2.84a3.08,3.08,0,0,0-1-2.44,11.454,11.454,0,0,0-.9-.78.89.89,0,0,1,.47-1.6,20.749,20.749,0,0,0,2.48-.31,10.89,10.89,0,0,0,5.2-2.35,8.71,8.71,0,0,0,2.41-3.56c.42-1.16.54-2.62-.35-3.49a3.76,3.76,0,0,0-1.92-.84c-.62-.13-1.24-.25-1.87-.35a.83.83,0,0,1-.19-1.58l2.63-1.09a4.94,4.94,0,0,0,2-1.24,4.33,4.33,0,0,0,.51-3.62c-.32-1.65-.89-3.23-1.28-4.87a10.46,10.46,0,0,1-.17-5,41.731,41.731,0,0,0-14.73,1,10.6,10.6,0,0,0-4,1.76c-1.64,1.31-2.06,3.28-1.89,5.41a.38.38,0,0,1-.71.2l-1.7-3.03a2,2,0,0,0-2.62-.84,12.1,12.1,0,0,0-3.84,3,6.66,6.66,0,0,0-1.64,4.92,43,43,0,0,0,1.22,7.22.66.66,0,0,1-1,.7l-.08-.05a2.23,2.23,0,0,0-1.59-.46c-1.48.18-1.86,1.68-2,3a25,25,0,0,0,.54,5.91Z" fill="#fff" opacity="0.2"/>
      <path id="Trazado_1095" data-name="Trazado 1095" d="M450.39,308.84a59.127,59.127,0,0,1,4-11.48.41.41,0,0,1,.14-.3l.27-.6a37.11,37.11,0,0,0-3.92-13.14.41.41,0,1,1,.7-.41,37.65,37.65,0,0,1,3.87,12.22c3.35-6.72,8.7-14.59,17-20.33a.39.39,0,0,1,.56.1.4.4,0,0,1-.1.56c-8.52,5.93-13.89,14.14-17.16,21a24.73,24.73,0,0,1,14-1.9.4.4,0,0,1,.32.47.39.39,0,0,1-.32.32h-.15c-.08,0-7.79-1.41-14.45,2.31A58.859,58.859,0,0,0,451.18,309a.39.39,0,0,1-.32.31h-.16a.39.39,0,0,1-.31-.47Z" fill="#f0f0f0"/>
    </g>
    <g id="freepik--landing-page--inject-2">
      <path id="Trazado_1096" data-name="Trazado 1096" d="M68.55,222.15l-.04-14.27-7.44-4.23.04,13.93h0v.32l7.44,4.25Z" fill="#005bea"/>
      <path id="Trazado_1097" data-name="Trazado 1097" d="M69,387.38l-.47-165.23-7.44-4.25.46,164.92a3.13,3.13,0,0,0,1.25,2.79h0l7.34,4.48A3.09,3.09,0,0,1,69,387.38Z" fill="#005bea"/>
      <path id="Trazado_1098" data-name="Trazado 1098" d="M69,387.38l-.47-165.23-7.44-4.25.46,164.92a3.13,3.13,0,0,0,1.25,2.79h0l7.34,4.48A3.09,3.09,0,0,1,69,387.38Z" fill="#fff" opacity="0.2"/>
      <path id="Trazado_1099" data-name="Trazado 1099" d="M73.44,389.9a5.452,5.452,0,0,1-.86.4A5.452,5.452,0,0,0,73.44,389.9Z" fill="#455a64"/>
      <path id="Trazado_1100" data-name="Trazado 1100" d="M72,390.44h0Z" fill="#455a64"/>
      <path id="Trazado_1101" data-name="Trazado 1101" d="M70.45,390.28Z" fill="#455a64"/>
      <path id="Trazado_1102" data-name="Trazado 1102" d="M68.54,207.85v-8.21A9.71,9.71,0,0,1,72.9,192l249-143.75a3.15,3.15,0,0,1,3.08-.33l-7.35-4.51h0a3.06,3.06,0,0,0-3.18.26l-249,143.75a9.68,9.68,0,0,0-4.39,7.62v8.22h0v.32l7.44,4.24Z" fill="#005bea"/>
      <path id="Trazado_1103" data-name="Trazado 1103" d="M68.54,207.85v-8.21A9.71,9.71,0,0,1,72.9,192l249-143.75a3.15,3.15,0,0,1,3.08-.33l-7.35-4.51h0a3.06,3.06,0,0,0-3.18.26l-249,143.75a9.68,9.68,0,0,0-4.39,7.62v8.22h0v.32l7.44,4.24Z" fill="#fff" opacity="0.3"/>
      <path id="Trazado_1104" data-name="Trazado 1104" d="M68.55,222.15l-.04-14.27-7.44-4.23.04,13.93h0v.32l7.44,4.25Z" opacity="0.2"/>
      <path id="Trazado_1105" data-name="Trazado 1105" d="M68.55,222.15l-.04-14.27-7.44-4.23.04,13.93h0v.32l7.44,4.25Z" fill="#fff" opacity="0.2"/>
      <path id="Trazado_1106" data-name="Trazado 1106" d="M321.89,48.27c2.43-1.4,4.41-.27,4.42,2.53v8.22L68.54,207.85v-8.21A9.71,9.71,0,0,1,72.9,192Z" fill="#005bea"/>
      <path id="Trazado_1107" data-name="Trazado 1107" d="M305.2,61.87c1.3-.76,2.36-.15,2.36,1.34a5.16,5.16,0,0,1-2.35,4.07c-1.3.76-2.36.15-2.36-1.34a5.13,5.13,0,0,1,2.35-4.07Z" fill="#fff"/>
      <path id="Trazado_1108" data-name="Trazado 1108" d="M312.39,57.71c1.3-.75,2.36-.14,2.36,1.35a5.13,5.13,0,0,1-2.35,4.07c-1.3.75-2.36.15-2.36-1.35a5.19,5.19,0,0,1,2.35-4.07Z" fill="#fff"/>
      <path id="Trazado_1109" data-name="Trazado 1109" d="M319.57,53.57c1.31-.76,2.36-.15,2.37,1.34A5.19,5.19,0,0,1,319.59,59c-1.3.76-2.36.15-2.37-1.34a5.19,5.19,0,0,1,2.35-4.09Z" fill="#fff"/>
      <path id="Trazado_1110" data-name="Trazado 1110" d="M120.38,169.77c1-.56,1.87-.46,2.33.26l2.34,3.6c.47.72,1.36.82,2.33.26L326.3,59V73.29L68.55,222.17V207.88l7.64-4.41a5.89,5.89,0,0,0,2.33-2.95l2.3-6.28a5.79,5.79,0,0,1,2.32-2.94Z" fill="#e0e0e0"/>
      <path id="Trazado_1111" data-name="Trazado 1111" d="M326.34,73.31l.47,165.24a9.67,9.67,0,0,1-4.39,7.6L73.44,389.9c-2.44,1.41-4.41.28-4.42-2.52l-.47-165.23Z" fill="#afc4ec"/>
      <path id="Trazado_1113" data-name="Trazado 1113" d="M316.15,67.82c1.73-1,3.13-.2,3.14,1.79A6.9,6.9,0,0,1,316.17,75L98,201c-1.73,1-3.14.19-3.15-1.8a6.9,6.9,0,0,1,3.13-5.4Z" fill="#fff"/>
      <path id="Trazado_1114" data-name="Trazado 1114" d="M72.67,209.15a.31.31,0,0,1,.33,0c.16.11.15.44,0,.73l-1.37,2.25L75.21,210a.27.27,0,0,1,.44.25.94.94,0,0,1-.44.77L71.6,213.1l1.38.66c.18.09.2.4,0,.69a1,1,0,0,1-.32.36.35.35,0,0,1-.31,0l-2.21-1.06-.09-.09h0v-.4h0l.08-.18,2.21-3.62A.81.81,0,0,1,72.67,209.15Z" fill="#e0e0e0"/>
      <path id="Trazado_1115" data-name="Trazado 1115" d="M80.49,204.64a.33.33,0,0,1,.3,0L83,205.65l.08.1h0v.45l-.07.18L80.81,210a.86.86,0,0,1-.3.3.29.29,0,0,1-.32,0c-.17-.1-.16-.43,0-.73l1.37-2.24L78,209.45a.276.276,0,0,1-.44-.26,1,1,0,0,1,.43-.76l3.62-2.08-1.38-.66c-.19-.09-.19-.4,0-.71a.88.88,0,0,1,.26-.34Z" fill="#e0e0e0"/>
      <path id="Trazado_1116" data-name="Trazado 1116" d="M87.91,200.35a2,2,0,0,1,1.5-.28l.33-.44a.83.83,0,0,1,.24-.22.42.42,0,0,1,.24,0c.15,0,.22.18.2.4l-.19,1.36a1,1,0,0,1-.19.45.82.82,0,0,1-.24.22l-.11.05-1.07.3a.25.25,0,0,1-.33-.23.85.85,0,0,1,.2-.61l.1-.14a1.39,1.39,0,0,0-.67.2,3.51,3.51,0,0,0-1.59,2.74c0,1,.72,1.42,1.6.91a3.42,3.42,0,0,0,1.39-1.74,1,1,0,0,1,.38-.49.45.45,0,0,1,.21-.06c.22,0,.3.28.18.59A5.43,5.43,0,0,1,87.93,206c-1.36.78-2.47.15-2.48-1.42a5.44,5.44,0,0,1,2.46-4.23Z" fill="#e0e0e0"/>
      <g id="Grupo_32" data-name="Grupo 32" opacity="0.3">
        <path id="Trazado_1117" data-name="Trazado 1117" d="M72.67,209.15a.31.31,0,0,1,.33,0c.16.11.15.44,0,.73l-1.37,2.25L75.21,210a.27.27,0,0,1,.44.25.94.94,0,0,1-.44.77L71.6,213.1l1.38.66c.18.09.2.4,0,.69a1,1,0,0,1-.32.36.35.35,0,0,1-.31,0l-2.21-1.06-.09-.09h0v-.4h0l.08-.18,2.21-3.62A.81.81,0,0,1,72.67,209.15Z"/>
      </g>
      <g id="Grupo_33" data-name="Grupo 33" opacity="0.3">
        <path id="Trazado_1118" data-name="Trazado 1118" d="M80.49,204.64a.33.33,0,0,1,.3,0L83,205.65l.08.1h0v.45l-.07.18L80.81,210a.86.86,0,0,1-.3.3.29.29,0,0,1-.32,0c-.17-.1-.16-.43,0-.73l1.37-2.24L78,209.45a.276.276,0,0,1-.44-.26,1,1,0,0,1,.43-.76l3.62-2.08-1.38-.66c-.19-.09-.19-.4,0-.71a.88.88,0,0,1,.26-.34Z"/>
      </g>
      <g id="Grupo_34" data-name="Grupo 34" opacity="0.3">
        <path id="Trazado_1119" data-name="Trazado 1119" d="M87.91,200.35a2,2,0,0,1,1.5-.28l.33-.44a.83.83,0,0,1,.24-.22.42.42,0,0,1,.24,0c.15,0,.22.18.2.4l-.19,1.36a1,1,0,0,1-.19.45.82.82,0,0,1-.24.22l-.11.05-1.07.3a.25.25,0,0,1-.33-.23.85.85,0,0,1,.2-.61l.1-.14a1.39,1.39,0,0,0-.67.2,3.51,3.51,0,0,0-1.59,2.74c0,1,.72,1.42,1.6.91a3.42,3.42,0,0,0,1.39-1.74,1,1,0,0,1,.38-.49.45.45,0,0,1,.21-.06c.22,0,.3.28.18.59A5.43,5.43,0,0,1,87.93,206c-1.36.78-2.47.15-2.48-1.42a5.44,5.44,0,0,1,2.46-4.23Z"/>
      </g>
      <path id="Trazado_1126" data-name="Trazado 1126" d="M217.88,277.3,199,300.76Z" fill="#005bea"/>
      <g id="Grupo_41" data-name="Grupo 41" opacity="0.7">
        <path id="Trazado_1131" data-name="Trazado 1131" d="M136.43,199.35l.02,9.05L84.68,238.29l-.02-9.04Z" fill="#fff"/>
        <path id="Trazado_1132" data-name="Trazado 1132" d="M115.65,225.35l.02,4.5L84.71,247.73l-.01-4.5Z" fill="#fff"/>
        <path id="Trazado_1133" data-name="Trazado 1133" d="M199.45,163.01l.02,5.28-14.99,8.65-.02-5.27Z" fill="#fff"/>
        <path id="Trazado_1134" data-name="Trazado 1134" d="M228.2,146.41l.01,5.28-19.98,11.54-.01-5.28Z" fill="#fff"/>
        <path id="Trazado_1135" data-name="Trazado 1135" d="M285.99,113.05l.01,5.28-14.99,8.65-.01-5.27Z" fill="#fff"/>
        <path id="Trazado_1136" data-name="Trazado 1136" d="M314.74,96.45l.01,5.28-19.98,11.54-.02-5.28Z" fill="#fff"/>
        <path id="Trazado_1137" data-name="Trazado 1137" d="M260.71,127.64l.01,5.28L236.87,146.7l-.02-5.28Z" fill="#fff"/>
      </g>
    </g>
    <g id="freepik--Character--inject-2">
      <path id="Trazado_1211" data-name="Trazado 1211" d="M318.75,290.32c-8.52,5.92-18.12,10-25.23,17.95-13.3,14.81-13.61,38.66-3.17,55.6S320.21,391,340,393.34c20.74,2.44,42.5-3.29,58.78-16.38s26.62-33.55,26.61-54.43-10.7-41.68-28.19-53.09c-16-10.41-38.9-13.38-54.91-1.47-8.1,6-13.49,14.91-21.57,20.95C320.06,289.4,319.41,289.86,318.75,290.32Z" fill="#37474f"/>
      <path id="Trazado_1212" data-name="Trazado 1212" d="M318.75,290.32c-8.52,5.92-18.12,10-25.23,17.95-13.3,14.81-13.61,38.66-3.17,55.6S320.21,391,340,393.34c20.74,2.44,42.5-3.29,58.78-16.38s26.62-33.55,26.61-54.43-10.7-41.68-28.19-53.09c-16-10.41-38.9-13.38-54.91-1.47-8.1,6-13.49,14.91-21.57,20.95C320.06,289.4,319.41,289.86,318.75,290.32Z" opacity="0.2"/>
      <path id="Trazado_1213" data-name="Trazado 1213" d="M318.75,290.32c-8.52,5.92-18.12,10-25.23,17.95-13.3,14.81-13.61,38.66-3.17,55.6S320.21,391,340,393.34c20.74,2.44,42.5-3.29,58.78-16.38s26.62-33.55,26.61-54.43-10.7-41.68-28.19-53.09c-16-10.41-38.9-13.38-54.91-1.47-8.1,6-13.49,14.91-21.57,20.95C320.06,289.4,319.41,289.86,318.75,290.32Z" fill="#fff" opacity="0.1"/>
      <path id="Trazado_1214" data-name="Trazado 1214" d="M322.22,377.14l.06-.42A22.43,22.43,0,0,1,340.46,358a70.711,70.711,0,0,0,23.28-8.92c5.09-3.07,9.89-6.84,15.6-8.51a25.4,25.4,0,0,1,16.81,1c-4.79-5-13-7.26-19.59-5,4.55-7,8.55-14.46,10.12-22.63s.46-17.13-4.47-23.83a24,24,0,0,0-37-2c-4.88,5.34-7.63,12.84-10.83,19.32-2.31,4.66-4.68,9.42-8.48,13-5.72,5.35-13.95,7.28-19.88,12.4-6.73,5.81-9.63,15.09-9.66,24a70.759,70.759,0,0,0,2.6,17.73,67.331,67.331,0,0,0,24.33,14.87,26.42,26.42,0,0,1-1.07-12.29Z" opacity="0.1"/>
      <g id="Grupo_56" data-name="Grupo 56" opacity="0.2">
        <path id="Trazado_1215" data-name="Trazado 1215" d="M414.24,319.66a61,61,0,0,0-52-59.18,44.82,44.82,0,0,0-5.88,1,59.42,59.42,0,0,1,56.27,58.22c.38,19.44-9.12,39.25-25.43,53-12.78,10.78-29.76,17.92-48.42,20.49l1.2.16c1.67.19,3.36.33,5,.42,16.57-3.21,31.59-10.05,43.2-19.84C404.91,359.86,414.63,339.58,414.24,319.66Z" fill="#fff"/>
      </g>
      <path id="Trazado_1216" data-name="Trazado 1216" d="M300.5,370.65a59.334,59.334,0,0,1,1,9.7l2.3-.87a5.94,5.94,0,0,1,6.39,1.45l.12.12a2.31,2.31,0,0,0,3.19.15h0a2.32,2.32,0,0,0,.8-1.67l.31-9.8Z" fill="#ffa8a7"/>
      <path id="Trazado_1217" data-name="Trazado 1217" d="M309.38,407c-4.77,5.11-13.56,9.58-19.95,5.22l.71,1.63c6.39,4.35,15.18-.11,20-5.22s1.68-8.65,6-13.18a15.51,15.51,0,0,0,3.72-5.52c-.19-.48-.38-1.12-.6-1.85a19.76,19.76,0,0,1-3.83,5.75C311.06,398.4,314.16,401.94,309.38,407Z" fill="#f5f5f5"/>
      <path id="Trazado_1218" data-name="Trazado 1218" d="M316.84,382.78a9.481,9.481,0,0,1-1.51-3.48,2,2,0,0,0-.94-1.42l-.05,1.65a2.32,2.32,0,0,1-4,1.52l-.12-.12a5.94,5.94,0,0,0-6.39-1.45l-2.34.88a1.8,1.8,0,0,0-1.16,1.72c.15,6.7-3,15.59-6.26,20.48-3.37,1.4-6.29,6-4.8,9.36l.15.34c6.39,4.36,15.18-.11,19.95-5.22s1.68-8.64,6-13.17a19.76,19.76,0,0,0,3.83-5.75A21.3,21.3,0,0,0,316.84,382.78Z" fill="#455a64"/>
      <path id="Trazado_1219" data-name="Trazado 1219" d="M307.49,392.45a.82.82,0,0,0,1.09-.36.8.8,0,0,0-.33-1.08,9.34,9.34,0,0,0-9.18,0c-.14.53-.29,1.05-.45,1.57A9,9,0,0,1,307.49,392.45Z" fill="#fff"/>
      <path id="Trazado_1220" data-name="Trazado 1220" d="M308.67,388.83a.82.82,0,0,0,.75-1.45,9.81,9.81,0,0,0-9.54.08c-.1.55-.21,1.09-.33,1.64C302.33,387.63,305.14,387.05,308.67,388.83Z" fill="#fff"/>
      <path id="Trazado_1221" data-name="Trazado 1221" d="M306.2,396.06a.82.82,0,0,0,1.09-.37.81.81,0,0,0-.34-1.08,9.29,9.29,0,0,0-9-.09c-.2.57-.42,1.12-.64,1.67a9,9,0,0,1,8.89-.13Z" fill="#fff"/>
      <path id="Trazado_1222" data-name="Trazado 1222" d="M294.08,402.56c-3.37,1.4-6.29,6-4.8,9.36l.15.34c6.29,4.29,14.91,0,19.73-5C305.14,399.39,296.74,401.35,294.08,402.56Z" fill="#fff"/>
      <path id="Trazado_1223" data-name="Trazado 1223" d="M304.79,399.58a.82.82,0,0,0,.75-1.45,9.29,9.29,0,0,0-9-.08c-.29.62-.58,1.22-.88,1.8C298.45,398.38,301.26,397.79,304.79,399.58Z" fill="#fff"/>
      <path id="Trazado_1224" data-name="Trazado 1224" d="M290.46,390.12a59.55,59.55,0,0,1-3,9.29l2.45.14a6,6,0,0,1,5.27,3.91v.15a2.33,2.33,0,0,0,2.87,1.43h0a2.36,2.36,0,0,0,1.4-1.21l4.23-8.84Z" fill="#b27575"/>
      <path id="Trazado_1225" data-name="Trazado 1225" d="M283.9,427c-6.43,2.75-16.28,3.29-20.36-3.28v1.78c4.08,6.56,13.93,6,20.36,3.28s5-7.23,10.78-9.64a15.63,15.63,0,0,0,5.63-3.55,19.072,19.072,0,0,1,.2-1.94,19.409,19.409,0,0,1-5.83,3.71C288.92,419.77,290.33,424.26,283.9,427Z" fill="#f5f5f5"/>
      <path id="Trazado_1226" data-name="Trazado 1226" d="M300.51,407.82a9.32,9.32,0,0,1,0-3.8,2,2,0,0,0-.29-1.68l-.71,1.49a2.36,2.36,0,0,1-1.4,1.21,2.33,2.33,0,0,1-2.87-1.43v-.15a6,6,0,0,0-5.27-3.91l-2.49-.14a1.8,1.8,0,0,0-1.76,1.1c-2.57,6.19-9,13.07-14,16.22-3.65-.09-8.17,2.94-8.17,6.63v.36c4.08,6.57,13.93,6,20.36,3.28s5-7.23,10.78-9.64a19.409,19.409,0,0,0,5.83-3.71A20.849,20.849,0,0,0,300.51,407.82Z" fill="#455a64"/>
      <path id="Trazado_1227" data-name="Trazado 1227" d="M288.06,412.89a.81.81,0,0,0,1.27-1,9.33,9.33,0,0,0-8.4-3.69q-.51.65-1.05,1.26a9,9,0,0,1,8.18,3.43Z" fill="#fff"/>
      <path id="Trazado_1228" data-name="Trazado 1228" d="M290.6,410.05a.81.81,0,0,0,1.14.11.82.82,0,0,0,.13-1.13,9.79,9.79,0,0,0-8.76-3.78c-.31.46-.64.92-1,1.37C285.28,406.4,288.09,407,290.6,410.05Z" fill="#fff"/>
      <path id="Trazado_1229" data-name="Trazado 1229" d="M285.43,415.67a.81.81,0,0,0,1.27-1,9.32,9.32,0,0,0-8.18-3.71c-.41.44-.83.86-1.26,1.27A9,9,0,0,1,285.43,415.67Z" fill="#fff"/>
      <path id="Trazado_1230" data-name="Trazado 1230" d="M271.71,416.73c-3.65-.09-8.17,2.94-8.17,6.63v.36c4,6.47,13.63,6,20.06,3.4C283.11,418.29,274.63,416.69,271.71,416.73Z" fill="#fff"/>
      <path id="Trazado_1231" data-name="Trazado 1231" d="M282.71,418.32a.82.82,0,0,0,1.14.1.8.8,0,0,0,.13-1.12,9.3,9.3,0,0,0-8.19-3.71c-.51.46-1,.89-1.53,1.29C277.4,414.66,280.2,415.26,282.71,418.32Z" fill="#fff"/>
      <path id="Trazado_1232" data-name="Trazado 1232" d="M328.24,306.48l-32.19,17.93a16,16,0,0,0-7.92,16.84l6.25,33.65-5.12,16.27c4.42,5.93,14.56,6.23,14.56,6.23,5.66-11.35,9.82-16.17,13-25.68s5.36-16.08,5.36-16.08l26.73-7.3a31.67,31.67,0,0,0,23.16-26.95c.46-4.05.48-6.81.48-6.81Z" fill="#005bea"/>
      <path id="Trazado_1233" data-name="Trazado 1233" d="M328.24,306.48l-32.19,17.93a16,16,0,0,0-7.92,16.84l6.25,33.65-5.12,16.27c4.42,5.93,14.56,6.23,14.56,6.23,5.66-11.35,9.82-16.17,13-25.68s5.36-16.08,5.36-16.08l26.73-7.3a31.67,31.67,0,0,0,23.16-26.95c.46-4.05.48-6.81.48-6.81Z" opacity="0.3"/>
      <path id="Trazado_1234" data-name="Trazado 1234" d="M328.24,306.48l-32.19,17.93a16,16,0,0,0-7.92,16.84l6.25,33.65-5.12,16.27c4.42,5.93,14.56,6.23,14.56,6.23,5.66-11.35,9.82-16.17,13-25.68s5.36-16.08,5.36-16.08l26.73-7.3a31.67,31.67,0,0,0,23.16-26.95c.46-4.05.48-6.81.48-6.81Z" fill="#fff" opacity="0.1"/>
      <path id="Trazado_1235" data-name="Trazado 1235" d="M328.48,315.52a15.19,15.19,0,0,0,3.6,9.81l-22.71,14.22a16.31,16.31,0,0,0-6.95,9.06l-8,26.29,7.25-29.28a13.28,13.28,0,0,1,5.91-8.1l21-13C326.36,319.2,328.48,315.52,328.48,315.52Z" opacity="0.2"/>
      <path id="Trazado_1236" data-name="Trazado 1236" d="M306.94,269.52l-7.24,6.54c-4.63-5.91-10.84-9.9-16.27-18.18-1.56-2-1.4-5.93-2.46-7.95-.84-1.58-2.3-4-2.91-5.29a.88.88,0,0,0-1.33-.35c-1.49,1.14-.68,3.8.12,6.59.95,3.3-4-1.17-4.7-1.93-3.16-2.94-5.87-10.15-8-9.43s-.45,4.31-.45,4.31c-2,.42-1.23,3.58-1.23,3.58-1.17,2.07-.84,5.26,1.57,8.23,1.75,2.15,6.48,5.11,8.94,6.56a8.1,8.1,0,0,1,2.56,2.42L291,287.68a9.29,9.29,0,0,0,13.26,2.25l10.53-7.88Z" fill="#ffa8a7"/>
      <path id="Trazado_1237" data-name="Trazado 1237" d="M306.94,269.52l-7.24,6.54c-4.63-5.91-10.84-9.9-16.27-18.18-1.56-2-1.4-5.93-2.46-7.95-.84-1.58-2.3-4-2.91-5.29a.88.88,0,0,0-1.33-.35c-1.49,1.14-.68,3.8.12,6.59.95,3.3-4-1.17-4.7-1.93-3.16-2.94-5.87-10.15-8-9.43s-.45,4.31-.45,4.31c-2,.42-1.23,3.58-1.23,3.58-1.17,2.07-.84,5.26,1.57,8.23,1.75,2.15,6.48,5.11,8.94,6.56a8.1,8.1,0,0,1,2.56,2.42L291,287.68a9.29,9.29,0,0,0,13.26,2.25l10.53-7.88Z" opacity="0.3"/>
      <path id="Trazado_1238" data-name="Trazado 1238" d="M330.37,251.41c-7.86-.34-18.29,11.32-25,18.31a25.76,25.76,0,0,0,8.78,14.07A190.536,190.536,0,0,0,330.37,271Z" fill="#455a64"/>
      <path id="Trazado_1239" data-name="Trazado 1239" d="M330.37,251.41c-7.86-.34-18.29,11.32-25,18.31a25.76,25.76,0,0,0,8.78,14.07A190.536,190.536,0,0,0,330.37,271Z" fill="#fff" opacity="0.3"/>
      <path id="Trazado_1240" data-name="Trazado 1240" d="M373.09,317.09c-5.71,5.49-33.13,6.5-47.12-6.82,1.34-9.41.89-19.48,0-29.44s-6.72-27.39,4.4-29.42c14.85-2.9,24.55-2.67,34.48,2.92C375.44,272,374,298.4,373.09,317.09Z" fill="#455a64"/>
      <path id="Trazado_1241" data-name="Trazado 1241" d="M373.09,317.09c-5.71,5.49-33.13,6.5-47.12-6.82,1.34-9.41.89-19.48,0-29.44s-6.72-27.39,4.4-29.42c14.85-2.9,24.55-2.67,34.48,2.92C375.44,272,374,298.4,373.09,317.09Z" fill="#455a64"/>
      <path id="Trazado_1242" data-name="Trazado 1242" d="M373.09,317.09c-5.71,5.49-33.13,6.5-47.12-6.82,1.34-9.41.89-19.48,0-29.44s-6.72-27.39,4.4-29.42c14.85-2.9,24.55-2.67,34.48,2.92C375.44,272,374,298.4,373.09,317.09Z" fill="#fff" opacity="0.2"/>
      <path id="Trazado_1243" data-name="Trazado 1243" d="M351,328.92a1.26,1.26,0,0,1,0,.43h0a1.249,1.249,0,0,1-.16.33h0a2.211,2.211,0,0,1-.29.33h0a3.1,3.1,0,0,1-.44.31L326.56,344a3.791,3.791,0,0,1-.68.3l-.26.08-.34.09-.42.07H324a5.116,5.116,0,0,1-.56,0h-.09a4.856,4.856,0,0,1-.55-.09h-.1l-.47-.14h-.09a3.109,3.109,0,0,1-.52-.25l-38.86-22.43a3.1,3.1,0,0,1-.44-.31l-.11-.12a2.053,2.053,0,0,1-.2-.23,1.089,1.089,0,0,1-.08-.15.908.908,0,0,1-.11-.22.758.758,0,0,1,0-.16,1.427,1.427,0,0,1,0-.22v1.38a1.423,1.423,0,0,0,0,.22.74.74,0,0,0,.14.38,1.09,1.09,0,0,0,.08.15,1.37,1.37,0,0,0,.2.22,1.312,1.312,0,0,0,.11.12,2.49,2.49,0,0,0,.44.32l38.86,22.43a3.111,3.111,0,0,0,.52.25h.09l.47.14h.1a4.856,4.856,0,0,0,.55.09h.09a5.116,5.116,0,0,0,.56,0h.77l.42-.08.34-.08.26-.08a3.789,3.789,0,0,0,.68-.3L350,331.77a3.07,3.07,0,0,0,.44-.3,2.859,2.859,0,0,0,.29-.33h0a1.249,1.249,0,0,0,.16-.33h0a1.161,1.161,0,0,0,0-.32h0v-1.5Z" fill="#e0e0e0"/>
      <path id="Trazado_1244" data-name="Trazado 1244" d="M351,328.92a1.26,1.26,0,0,1,0,.43h0a1.249,1.249,0,0,1-.16.33h0a2.211,2.211,0,0,1-.29.33h0a3.1,3.1,0,0,1-.44.31L326.56,344a3.791,3.791,0,0,1-.68.3l-.26.08-.34.09-.42.07H324a5.116,5.116,0,0,1-.56,0h-.09a4.856,4.856,0,0,1-.55-.09h-.1l-.47-.14h-.09a3.109,3.109,0,0,1-.52-.25l-38.86-22.43a3.1,3.1,0,0,1-.44-.31l-.11-.12a2.053,2.053,0,0,1-.2-.23,1.089,1.089,0,0,1-.08-.15.908.908,0,0,1-.11-.22.758.758,0,0,1,0-.16,1.427,1.427,0,0,1,0-.22v1.38a1.423,1.423,0,0,0,0,.22.74.74,0,0,0,.14.38,1.09,1.09,0,0,0,.08.15,1.37,1.37,0,0,0,.2.22,1.312,1.312,0,0,0,.11.12,2.49,2.49,0,0,0,.44.32l38.86,22.43a3.111,3.111,0,0,0,.52.25h.09l.47.14h.1a4.856,4.856,0,0,0,.55.09h.09a5.116,5.116,0,0,0,.56,0h.77l.42-.08.34-.08.26-.08a3.789,3.789,0,0,0,.68-.3L350,331.77a3.07,3.07,0,0,0,.44-.3,2.859,2.859,0,0,0,.29-.33h0a1.249,1.249,0,0,0,.16-.33h0a1.161,1.161,0,0,0,0-.32h0v-1.5Z" opacity="0.2"/>
      <path id="Trazado_1245" data-name="Trazado 1245" d="M281.77,320.62a.91.91,0,0,0,.11.22,1.085,1.085,0,0,0,.08.15,2.048,2.048,0,0,0,.2.23l.11.12a3.1,3.1,0,0,0,.44.31l38.86,22.43a3.109,3.109,0,0,0,.52.25h.09l.47.14h.1a4.847,4.847,0,0,0,.55.09h.09a5.116,5.116,0,0,0,.56,0h.77l.42-.07.34-.09.26-.08a3.793,3.793,0,0,0,.68-.3L350,330.4a3.1,3.1,0,0,0,.44-.31h0a2.209,2.209,0,0,0,.29-.33h0a1.249,1.249,0,0,0,.16-.33h0a1.26,1.26,0,0,0,0-.43,1.75,1.75,0,0,0-1-1.33l-38.86-22.43a5.28,5.28,0,0,0-4.83,0l-23.5,13.6a1.73,1.73,0,0,0-1,1.4,1.431,1.431,0,0,0,0,.22.76.76,0,0,0,.07.16Z" fill="#e0e0e0"/>
      <path id="Trazado_1246" data-name="Trazado 1246" d="M285,320.24,322.76,342l.14.07h.09l.29.09H324a2.746,2.746,0,0,0,.39,0h.25l.3-.08a1.192,1.192,0,0,0,.26-.11L337.38,335l-39-22.51Z" fill="#e0e0e0"/>
      <path id="Trazado_1247" data-name="Trazado 1247" d="M324,342.3Z" fill="#263238"/>
      <path id="Trazado_1248" data-name="Trazado 1248" d="M320.92,314.25l-7.1,4.18a.71.71,0,0,0,0,1.24l10.62,6.13a1.18,1.18,0,0,0,1.19,0l7.1-4.17a.72.72,0,0,0,0-1.24l-10.62-6.14a1.18,1.18,0,0,0-1.19,0Z" fill="#e0e0e0"/>
      <path id="Trazado_1249" data-name="Trazado 1249" d="M285,320.24,322.76,342l.14.07h.09l.29.09H324a2.746,2.746,0,0,0,.39,0h.25l.3-.08a1.192,1.192,0,0,0,.26-.11L337.38,335l-39-22.51Z" opacity="0.4"/>
      <path id="Trazado_1250" data-name="Trazado 1250" d="M320.92,314.25l-7.1,4.18a.71.71,0,0,0,0,1.24l10.62,6.13a1.18,1.18,0,0,0,1.19,0l7.1-4.17a.72.72,0,0,0,0-1.24l-10.62-6.14a1.18,1.18,0,0,0-1.19,0Z" opacity="0.4"/>
      <path id="Trazado_1251" data-name="Trazado 1251" d="M323.76,342.69l-4-25.58a4.7,4.7,0,0,0-2.29-3.35L278.32,291a1.17,1.17,0,0,0-1-.07h0l-.93.46.31.12a1.14,1.14,0,0,0-.1.69l4,25.59a4.7,4.7,0,0,0,2.29,3.34L322,343.89a1.45,1.45,0,0,0,.26.11v.37l.9-.44h0a1.17,1.17,0,0,0,.6-1.24Z" fill="#e0e0e0"/>
      <path id="Trazado_1252" data-name="Trazado 1252" d="M323.76,342.69l-4-25.58a4.7,4.7,0,0,0-2.29-3.35L278.32,291a1.17,1.17,0,0,0-1-.07h0l-.93.46.31.12a1.14,1.14,0,0,0-.1.69l4,25.59a4.7,4.7,0,0,0,2.29,3.34L322,343.89a1.45,1.45,0,0,0,.26.11v.37l.9-.44h0a1.17,1.17,0,0,0,.6-1.24Z" opacity="0.3"/>
      <path id="Trazado_1253" data-name="Trazado 1253" d="M316.66,314.15,277.53,291.4a1.18,1.18,0,0,0-1.76,1.21l4,25.58a4.78,4.78,0,0,0,2.3,3.35l39.13,22.75a1.18,1.18,0,0,0,1.76-1.21l-4-25.58A4.74,4.74,0,0,0,316.66,314.15Z" fill="#e0e0e0"/>
      <path id="Trazado_1254" data-name="Trazado 1254" d="M297.7,314.81a8.66,8.66,0,0,1,3.88,5.6c.26,2-1.06,2.74-3,1.64a8.64,8.64,0,0,1-3.88-5.59C294.48,314.46,295.81,313.73,297.7,314.81Z" fill="#fff"/>
      <path id="Trazado_1255" data-name="Trazado 1255" d="M382.05,298.34l-4.2-15.62L363.12,286l3.53,12.11-21.59,15.33-7.26,3.06a11.4,11.4,0,0,0-4.81,3.82l-5.92,8.2a.68.68,0,0,0-.06.35,1.13,1.13,0,0,0,2,.54c1.31-1.5,2.41-2.89,3.78-4.2l-3.49,4.71a1.41,1.41,0,0,0,.44,2,5.42,5.42,0,0,0,1.26.55,5.32,5.32,0,0,0,4.9-1.23l4.57-4.19,1.26-.44a19.14,19.14,0,0,0,9.18-6.89l25.31-9.83A9.67,9.67,0,0,0,382.05,298.34Z" fill="#ffa8a7"/>
      <path id="Trazado_1256" data-name="Trazado 1256" d="M382.05,298.34l-4.2-15.62L363.12,286l3.53,12.11-21.59,15.33-7.26,3.06a11.4,11.4,0,0,0-4.81,3.82l-5.92,8.2a.68.68,0,0,0-.06.35,1.13,1.13,0,0,0,2,.54c1.31-1.5,2.41-2.89,3.78-4.2l-3.49,4.71a1.41,1.41,0,0,0,.44,2,5.42,5.42,0,0,0,1.26.55,5.32,5.32,0,0,0,4.9-1.23l4.57-4.19,1.26-.44a19.14,19.14,0,0,0,9.18-6.89l25.31-9.83A9.67,9.67,0,0,0,382.05,298.34Z" opacity="0.3"/>
      <path id="Trazado_1257" data-name="Trazado 1257" d="M380.16,284.76l-.45-2.07c-5.35-24.32-9.62-26.05-16.79-29.38-7,6.08-5.81,16.42-5.81,16.42l6.25,18.71.19.54A21.75,21.75,0,0,0,380.16,284.76Z" fill="#455a64"/>
      <path id="Trazado_1258" data-name="Trazado 1258" d="M380.16,284.76l-.45-2.07c-5.35-24.32-9.62-26.05-16.79-29.38-7,6.08-5.81,16.42-5.81,16.42l6.25,18.71.19.54A21.75,21.75,0,0,0,380.16,284.76Z" fill="#fff" opacity="0.3"/>
      <path id="Trazado_1259" data-name="Trazado 1259" d="M352.94,233.85a44.24,44.24,0,0,0,2.33-13.68c0-2.48-.25-5.19-2-7-2.09-2.14-5.67-2.12-8.34-.77s-4.63,3.74-6.51,6.06a54.933,54.933,0,0,0,4.12,11.72c.94,1.82,2.08,3.67,3.9,4.6S351.32,235.11,352.94,233.85Z" fill="#455a64"/>
      <path id="Trazado_1260" data-name="Trazado 1260" d="M339.73,262.42c-3.59,2.27-8.25-1.94-4.08-8.08a.22.22,0,0,0,.05-.11V244l13.54-7.47.31,13.67C348.1,254.43,342.85,260.44,339.73,262.42Z" fill="#ffa8a7"/>
      <path id="Trazado_1261" data-name="Trazado 1261" d="M339.73,262.42c-3.59,2.27-8.25-1.94-4.08-8.08a.22.22,0,0,0,.05-.11V244l13.54-7.47.31,13.67C348.1,254.43,342.85,260.44,339.73,262.42Z" opacity="0.3"/>
      <path id="Trazado_1262" data-name="Trazado 1262" d="M342.67,247.27c-2.26,1.09-5.08,2.19-7,2.9V244l13.54-7.47C349.13,243.3,346.43,245.45,342.67,247.27Z" opacity="0.2"/>
      <path id="Trazado_1263" data-name="Trazado 1263" d="M323.88,217.76a114.859,114.859,0,0,0,.28,20.23A10,10,0,0,0,336,246.81c2.22-.46,4.34-1,6.14-1.47a9.23,9.23,0,0,0,6.56-6.76l.5-2.08a4.25,4.25,0,0,0,5.12,1.2,5.73,5.73,0,0,0,3.25-4.41,5.3,5.3,0,0,0-.24-2.79,3.67,3.67,0,0,0-1.88-2,4.09,4.09,0,0,0-4.51,1.29,8.68,8.68,0,0,0-1.82,4.6,14.19,14.19,0,0,1-3.56-10.24,5.11,5.11,0,0,1-3.28-1.68,4.46,4.46,0,0,1-.84-3.33C336.15,221.79,328.85,221.07,323.88,217.76Z" fill="#ffa8a7"/>
      <path id="Trazado_1264" data-name="Trazado 1264" d="M323.88,217.76a114.859,114.859,0,0,0,.28,20.23A10,10,0,0,0,336,246.81c2.22-.46,4.34-1,6.14-1.47a9.23,9.23,0,0,0,6.56-6.76l.5-2.08a4.25,4.25,0,0,0,5.12,1.2,5.73,5.73,0,0,0,3.25-4.41,5.3,5.3,0,0,0-.24-2.79,3.67,3.67,0,0,0-1.88-2,4.09,4.09,0,0,0-4.51,1.29,8.68,8.68,0,0,0-1.82,4.6,14.19,14.19,0,0,1-3.56-10.24,5.11,5.11,0,0,1-3.28-1.68,4.46,4.46,0,0,1-.84-3.33C336.15,221.79,328.85,221.07,323.88,217.76Z" opacity="0.3"/>
      <path id="Trazado_1265" data-name="Trazado 1265" d="M333.33,229.08l-4.7,5.7,4.32,1.52Z" fill="#f28f8f"/>
      <path id="Trazado_1266" data-name="Trazado 1266" d="M333.33,229.08l-4.7,5.7,4.32,1.52Z" opacity="0.3"/>
      <path id="Trazado_1267" data-name="Trazado 1267" d="M336.89,239.13l-3.63,1.11a2.24,2.24,0,0,0,2.45,1.13A2,2,0,0,0,336.89,239.13Z" fill="#f28f8f"/>
      <path id="Trazado_1268" data-name="Trazado 1268" d="M336.89,239.13l-3.63,1.11a2.24,2.24,0,0,0,2.45,1.13A2,2,0,0,0,336.89,239.13Z" opacity="0.4"/>
      <path id="Trazado_1269" data-name="Trazado 1269" d="M334.52,241.3a2.11,2.11,0,0,0,1.19.07,1.83,1.83,0,0,0,1.18-1.64,2.22,2.22,0,0,0-1.41.25A2.18,2.18,0,0,0,334.52,241.3Z" fill="#f28f8f"/>
      <path id="Trazado_1270" data-name="Trazado 1270" d="M339.73,230.33a1.29,1.29,0,1,1-.328-.933A1.29,1.29,0,0,1,339.73,230.33Z" fill="#263238"/>
      <path id="Trazado_1271" data-name="Trazado 1271" d="M328.93,229.33a1.29,1.29,0,1,1-1.22-1.35,1.29,1.29,0,0,1,1.22,1.35Z" fill="#263238"/>
      <path id="Trazado_1272" data-name="Trazado 1272" d="M328,224.14,325,226a1.85,1.85,0,0,1,.67-2,2.16,2.16,0,0,1,2.33.14Z" fill="#263238"/>
      <path id="Trazado_1273" data-name="Trazado 1273" d="M339,224.57l2.76,2.13a1.86,1.86,0,0,0-.45-2,2.23,2.23,0,0,0-2.31-.13Z" fill="#263238"/>
      <path id="Trazado_1274" data-name="Trazado 1274" d="M342.06,218.68a4.48,4.48,0,0,1-1.24,2.41,3.52,3.52,0,0,1-2.54,1,2.8,2.8,0,0,1-2.34-1.35,3.31,3.31,0,0,1-3.05,1.35,3.67,3.67,0,0,1-2.94-1.92,3.48,3.48,0,0,1-3.62,1.42,3.33,3.33,0,0,1-2.47-2.89,4.33,4.33,0,0,1-3.23-.46,3.19,3.19,0,0,1-1.54-2.8,2.56,2.56,0,0,1,2-2.35,3.36,3.36,0,0,1,.84-4A3.29,3.29,0,0,1,326,209a2.59,2.59,0,0,1,1.53-2.29,2.55,2.55,0,0,1,2.7.52,4.07,4.07,0,0,1,7.55-1.63,3.52,3.52,0,0,1,3.28-1.75,3.29,3.29,0,0,1,2.84,2.17,4.08,4.08,0,0,1,7.48,2,2.52,2.52,0,0,1,3.47.2,3.15,3.15,0,0,1,.29,3.61,4.16,4.16,0,0,1-3.18,1.93,3.28,3.28,0,0,1-5.64,3.23,2.43,2.43,0,0,1-1.55,2.58,2.27,2.27,0,0,1-2.71-.89Z" fill="#263238"/>
    </g>
    <g id="freepik--Process--inject-6" transform="translate(68.374 144.23)">
      <g id="freepik--process--inject-6-2" data-name="freepik--process--inject-6" transform="translate(20.451 -0.156)">
        <path id="Trazado_1417" data-name="Trazado 1417" d="M64.334,128.438h0c-3.851,0-6.544-3.022-6.544-7.347V116.37A14.833,14.833,0,0,1,64.7,104.414l95.938-55.409a8.23,8.23,0,0,1,4.128-1.185c3.858,0,6.544,3.022,6.544,7.347v4.721a14.827,14.827,0,0,1-6.9,11.956L68.462,127.253A8.23,8.23,0,0,1,64.334,128.438Zm100.4-78.88a6.584,6.584,0,0,0-3.259.955l-95.912,55.4a12.963,12.963,0,0,0-6.037,10.455v4.721c0,3.358,1.936,5.609,4.806,5.609a6.584,6.584,0,0,0,3.292-.955l95.886-55.422a12.977,12.977,0,0,0,6.031-10.455V55.181C169.543,51.81,167.614,49.558,164.737,49.558Z" transform="translate(0 -5.856)" fill="#e0e0e0"/>
        <path id="Trazado_1418" data-name="Trazado 1418" d="M218.386,57.141c0-3.2-2.245-4.5-5.017-2.9l-2.429,1.4L206.7,74.391l6.669-3.845a11.1,11.1,0,0,0,5.017-8.7Z" transform="translate(-50.871 -7.816)" fill="#f0f0f0"/>
        <path id="Trazado_1419" data-name="Trazado 1419" d="M168.02,77.879l-4.24,18.764,12.081-6.979L180.1,70.9Z" transform="translate(-36.209 -13.74)" fill="#f0f0f0"/>
        <path id="Trazado_1420" data-name="Trazado 1420" d="M189.48,65.482l-4.24,18.764,12.081-6.979,4.24-18.757Z" transform="translate(-43.54 -9.508)" fill="#f0f0f0"/>
        <path id="Trazado_1421" data-name="Trazado 1421" d="M68.533,119.794a11.107,11.107,0,0,0-5.023,8.7v4.721c0,3.2,2.252,4.5,5.023,2.9l2.429-1.4,4.24-18.764Zm8.717-5.037-4.24,18.764,12.081-6.966,4.24-18.764Zm42.386-24.485-4.24,18.764,12.081-6.979,4.24-18.757ZM91.379,106.6l-4.24,18.757,12.081-6.972,4.24-18.764Zm14.129-8.164-4.24,18.764,12.081-6.979,4.24-18.764Z" transform="translate(-1.954 -17.976)" fill="#005bea"/>
        <g id="Grupo_66" data-name="Grupo 66" transform="translate(61.556 65.324)" opacity="0.2">
          <path id="Trazado_1422" data-name="Trazado 1422" d="M68.533,119.794a11.107,11.107,0,0,0-5.023,8.7v4.721c0,3.2,2.252,4.5,5.023,2.9l2.429-1.4,4.24-18.764Zm8.717-5.037-4.24,18.764,12.081-6.966,4.24-18.764Zm42.386-24.485-4.24,18.764,12.081-6.979,4.24-18.757ZM91.379,106.6l-4.24,18.757,12.081-6.972,4.24-18.764Zm14.129-8.164-4.24,18.764,12.081-6.979,4.24-18.764Z" transform="translate(-63.51 -83.3)" fill="#fff"/>
        </g>
        <path id="Trazado_1423" data-name="Trazado 1423" d="M88.574,99.741a1.1,1.1,0,0,1-.158-.718V86.732a2.186,2.186,0,0,1,.165-.915,1.317,1.317,0,0,1,.553-.579l3.377-1.975c1.317-.737,2.232-.869,2.844-.382s.909,1.554.909,3.206a9.217,9.217,0,0,1-.882,4.247,7.071,7.071,0,0,1-2.851,2.89l-1.317.757v3.437a2.087,2.087,0,0,1-.165.9,1.317,1.317,0,0,1-.566.579l-1.317.777C88.863,99.827,88.679,99.853,88.574,99.741Zm3.713-9.474a2.179,2.179,0,0,0,.882-.968,3.693,3.693,0,0,0,.309-1.58,1.764,1.764,0,0,0-.309-1.244c-.211-.191-.5-.178-.882.04l-1.086.658v3.759Z" transform="translate(-10.46 -17.735)" fill="#455a64"/>
        <path id="Trazado_1424" data-name="Trazado 1424" d="M103.094,91.359a1.113,1.113,0,0,1-.158-.718V78.349a2.186,2.186,0,0,1,.165-.915,1.251,1.251,0,0,1,.546-.579l3.4-1.975q1.916-1.106,2.824-.4c.606.474.915,1.521.915,3.147a8.19,8.19,0,0,1-1.521,5.063l1.363,3.772a.784.784,0,0,1,.059.309.8.8,0,0,1-.092.369.6.6,0,0,1-.237.27l-1.936,1.146a.6.6,0,0,1-.323.105c-.079,0-.138-.086-.171-.217l-1.146-3.654-1.06.612v3.654a2.186,2.186,0,0,1-.165.9,1.317,1.317,0,0,1-.566.579l-1.317.777C103.384,91.444,103.2,91.47,103.094,91.359Zm3.647-9.6a2.634,2.634,0,0,0,1.251-2.508q0-1.811-1.185-1.126l-1.086.658v3.588Z" transform="translate(-15.42 -14.869)" fill="#455a64"/>
        <path id="Trazado_1425" data-name="Trazado 1425" d="M118.632,80.574q-1.244-1.244-1.244-4.852a14.86,14.86,0,0,1,1.244-6.3,8.954,8.954,0,0,1,3.654-4.069c1.6-.922,2.811-.968,3.647-.138s1.244,2.443,1.244,4.852a14.853,14.853,0,0,1-1.244,6.294,8.875,8.875,0,0,1-3.647,4.069C120.686,81.331,119.468,81.4,118.632,80.574ZM123.9,75.34a11,11,0,0,0,.514-3.674,6.291,6.291,0,0,0-.514-3.055c-.342-.546-.882-.619-1.606-.2a3.661,3.661,0,0,0-1.606,2.054,10.745,10.745,0,0,0-.52,3.654,6.288,6.288,0,0,0,.52,3.075c.349.553.876.619,1.606.2a3.759,3.759,0,0,0,1.6-2.054Z" transform="translate(-20.359 -11.596)" fill="#455a64"/>
        <path id="Trazado_1426" data-name="Trazado 1426" d="M135.624,70.691q-1.356-1.132-1.356-4.832a14.366,14.366,0,0,1,1.317-6.393,9.369,9.369,0,0,1,3.772-4.075,6.287,6.287,0,0,1,1.916-.777,2.377,2.377,0,0,1,1.435.092c.105.04.151.138.151.3a2.482,2.482,0,0,1-.092.5l-.593,1.89a.658.658,0,0,1-.224.408.408.408,0,0,1-.277,0,2.634,2.634,0,0,0-1.942.421,4.872,4.872,0,0,0-1.975,2.278,9.138,9.138,0,0,0-.7,3.753,4.121,4.121,0,0,0,.751,2.923c.494.474,1.172.467,2.021,0a6.419,6.419,0,0,0,1.975-1.857,1.487,1.487,0,0,1,.277-.3c.086-.053.158,0,.224.125l.619,1.277a.764.764,0,0,1,.079.336.994.994,0,0,1-.165.474,9.309,9.309,0,0,1-3.417,3.206C137.79,71.363,136.526,71.455,135.624,70.691Z" transform="translate(-26.125 -8.153)" fill="#455a64"/>
        <path id="Trazado_1427" data-name="Trazado 1427" d="M150.644,63.494a1.113,1.113,0,0,1-.158-.718V50.451a2.179,2.179,0,0,1,.165-.909,1.317,1.317,0,0,1,.553-.586l5.721-3.292c.257-.145.435-.165.527-.059a1.317,1.317,0,0,1,.138.737v.981a2.344,2.344,0,0,1-.138.9,1.165,1.165,0,0,1-.527.546l-3.654,2.113v2.6l2.41-1.4c.263-.145.435-.165.533-.059a1.178,1.178,0,0,1,.145.731v.935a2.238,2.238,0,0,1-.145.9,1.224,1.224,0,0,1-.533.553l-2.41,1.4v2.634l3.641-2.14c.257-.151.435-.171.527-.059a1.356,1.356,0,0,1,.132.737v.981a2.45,2.45,0,0,1-.132.876,1.225,1.225,0,0,1-.527.546L151.2,63.408C150.934,63.579,150.749,63.619,150.644,63.494Z" transform="translate(-31.664 -5.076)" fill="#455a64"/>
        <path id="Trazado_1428" data-name="Trazado 1428" d="M165.5,55.286a2.508,2.508,0,0,1-1.666-.086.356.356,0,0,1-.237-.356,1.191,1.191,0,0,1,.086-.408l.658-2.048a.757.757,0,0,1,.224-.382.316.316,0,0,1,.23,0,2.693,2.693,0,0,0,1.159.053,3.641,3.641,0,0,0,1.317-.461,2.8,2.8,0,0,0,.961-.849,2.074,2.074,0,0,0,.309-1.139.851.851,0,0,0-.336-.8,3.575,3.575,0,0,0-1.264-.184,3.661,3.661,0,0,1-2.173-.56,2.7,2.7,0,0,1-.777-2.3,7.321,7.321,0,0,1,.974-3.772A7.143,7.143,0,0,1,167.6,39.36a6.656,6.656,0,0,1,1.942-.81,1.975,1.975,0,0,1,1.369.158.415.415,0,0,1,.237.369,1.317,1.317,0,0,1-.086.388l-.658,2.048a.8.8,0,0,1-.217.382.3.3,0,0,1-.237,0,2.1,2.1,0,0,0-1.9.29,2.706,2.706,0,0,0-.909.823,2.074,2.074,0,0,0-.316,1.159,1.047,1.047,0,0,0,.165.658.744.744,0,0,0,.448.263,4.694,4.694,0,0,0,.876.059h.263a5.2,5.2,0,0,1,1.606.25,1.639,1.639,0,0,1,.889.869,4.5,4.5,0,0,1,.3,1.87,7.2,7.2,0,0,1-.915,3.549,6.992,6.992,0,0,1-2.7,2.68A7.67,7.67,0,0,1,165.5,55.286Z" transform="translate(-36.147 -2.669)" fill="#455a64"/>
        <path id="Trazado_1429" data-name="Trazado 1429" d="M179.012,47.488a2.555,2.555,0,0,1-1.666-.086.356.356,0,0,1-.237-.356,1.191,1.191,0,0,1,.086-.408l.658-2.048a.81.81,0,0,1,.224-.382.336.336,0,0,1,.237,0,2.68,2.68,0,0,0,1.159.053,3.654,3.654,0,0,0,1.277-.461,2.686,2.686,0,0,0,.961-.856,2.041,2.041,0,0,0,.309-1.132.851.851,0,0,0-.336-.8,3.377,3.377,0,0,0-1.264-.184,3.707,3.707,0,0,1-2.173-.56,2.708,2.708,0,0,1-.777-2.3,7.242,7.242,0,0,1,.994-3.779,7.124,7.124,0,0,1,2.633-2.634,6.656,6.656,0,0,1,1.942-.81,1.975,1.975,0,0,1,1.369.151.434.434,0,0,1,.237.375,1.159,1.159,0,0,1-.086.388L183.9,33.7a.843.843,0,0,1-.224.382.336.336,0,0,1-.237,0,2.107,2.107,0,0,0-1.9.29,2.706,2.706,0,0,0-.909.823,2.074,2.074,0,0,0-.316,1.159,1.047,1.047,0,0,0,.165.658.777.777,0,0,0,.448.263,4.286,4.286,0,0,0,.876.053h.263a5,5,0,0,1,1.606.25,1.639,1.639,0,0,1,.889.869,4.5,4.5,0,0,1,.3,1.87,7.2,7.2,0,0,1-.915,3.549,6.992,6.992,0,0,1-2.7,2.68,7.67,7.67,0,0,1-2.238.941Z" transform="translate(-40.762 0)" fill="#455a64"/>
      </g>
    </g>
    <g id="freepik--button--inject-6" transform="translate(-7.422 96.438)">
      <path id="Trazado_1736" data-name="Trazado 1736" d="M250.554,135.927a2.145,2.145,0,0,0-.891-1.975l-4.781-2.762a2.153,2.153,0,0,0-2.168.208L186.7,163.743a6.733,6.733,0,0,0-3.058,5.293v15.018a2.145,2.145,0,0,0,.891,1.975l4.781,2.762a2.138,2.138,0,0,0,2.16-.215L247.5,156.238a6.763,6.763,0,0,0,3.058-5.3Z" transform="translate(0)" fill="#005bea"/>
      <path id="Trazado_1737" data-name="Trazado 1737" d="M189.377,201.145h-.059c-.549-.319-4.224-2.435-4.773-2.762a2.138,2.138,0,0,1-.9-1.982V181.369a5.938,5.938,0,0,1,.638-2.509l4.766,2.754a6.1,6.1,0,0,0-.624,2.517v15.018a2.086,2.086,0,0,0,.95,2Z" transform="translate(0 -12.333)" opacity="0.2"/>
      <path id="Trazado_1738" data-name="Trazado 1738" d="M249.753,133.871a2.227,2.227,0,0,0-2.019.29L191.716,166.5a6.488,6.488,0,0,0-2.435,2.776l-4.751-2.754a6.421,6.421,0,0,1,2.4-2.784L242.946,131.4a2.175,2.175,0,0,1,2.16-.215C245.626,131.48,248.9,133.366,249.753,133.871Z" transform="translate(-0.231 0)" fill="#fff" opacity="0.2"/>
      <path id="Trazado_1812" data-name="Trazado 1812" d="M69.757,199.323a3.341,3.341,0,0,1,1.462-.489,2.137,2.137,0,0,1,1.15.244,1.951,1.951,0,0,1,.756.788,2.467,2.467,0,0,1,.285,1.118.815.815,0,0,1-.081.344.53.53,0,0,1-.177.226l-1.63.942a.453.453,0,0,1-.281.081.475.475,0,0,1-.217-.1l-.118-.122a.634.634,0,0,0-.231-.145.8.8,0,0,0-.371-.032,1.467,1.467,0,0,0-.548.208,3.361,3.361,0,0,0-.453.312,2.522,2.522,0,0,0-.385.376,1.63,1.63,0,0,0-.272.453,1.358,1.358,0,0,0-.109.539.6.6,0,0,0,.118.412.543.543,0,0,0,.4.122,3.354,3.354,0,0,0,.738-.109l1.145-.3a3.88,3.88,0,0,1,1.2-.154,1.449,1.449,0,0,1,.851.321,1.766,1.766,0,0,1,.507.856,5.211,5.211,0,0,1,.168,1.462,6.46,6.46,0,0,1-.285,1.906,7.8,7.8,0,0,1-.8,1.775,8.15,8.15,0,0,1-1.218,1.535,7.624,7.624,0,0,1-1.535,1.173,3.74,3.74,0,0,1-1.539.543,2.055,2.055,0,0,1-1.2-.217,1.938,1.938,0,0,1-.792-.815,2.716,2.716,0,0,1-.29-1.263.806.806,0,0,1,.077-.344.507.507,0,0,1,.181-.226l1.63-.942a.5.5,0,0,1,.272-.091.425.425,0,0,1,.2.086l.149.163a.824.824,0,0,0,.267.2.81.81,0,0,0,.421.072,1.522,1.522,0,0,0,.629-.226,4.677,4.677,0,0,0,1.1-.856,1.508,1.508,0,0,0,.453-1.05.426.426,0,0,0-.158-.385.838.838,0,0,0-.484-.072,4.387,4.387,0,0,0-.828.158c-.335.1-.729.195-1.186.3a1.792,1.792,0,0,1-1.87-.326,3.4,3.4,0,0,1-.593-2.291,6.392,6.392,0,0,1,.244-1.707,7.845,7.845,0,0,1,.684-1.7,7.977,7.977,0,0,1,1.114-1.553,6.239,6.239,0,0,1,1.458-1.2Z" transform="translate(134.669 -35.524)" fill="#fff"/>
      <path id="Trazado_1813" data-name="Trazado 1813" d="M89.926,186.277a.181.181,0,0,1,.235,0,.407.407,0,0,1,.1.308v2.028a.955.955,0,0,1-.1.421.625.625,0,0,1-.235.29l-2.187,1.263V200.4a.955.955,0,0,1-.1.421.629.629,0,0,1-.235.29l-1.63.942a.186.186,0,0,1-.235,0,.412.412,0,0,1-.1-.3v-9.815L83.253,193.2a.186.186,0,0,1-.235,0,.407.407,0,0,1-.1-.308v-2.028a.955.955,0,0,1,.1-.421.652.652,0,0,1,.235-.29Z" transform="translate(125.411 -28.632)" fill="#fff"/>
      <path id="Trazado_1814" data-name="Trazado 1814" d="M102.287,180.274c.163-.1.29-.1.376,0a.7.7,0,0,1,.181.317l2.716,10.49a1,1,0,0,1,.05.258.783.783,0,0,1-.081.344.5.5,0,0,1-.195.235l-1.566.905q-.244.14-.353.041a.453.453,0,0,1-.131-.24l-.349-1.385-3.3,1.906-.344,1.788a1.6,1.6,0,0,1-.131.394.856.856,0,0,1-.353.367l-1.566.905a.145.145,0,0,1-.195,0,.321.321,0,0,1-.081-.249,1.81,1.81,0,0,1,.05-.317l2.716-13.614a2.467,2.467,0,0,1,.177-.525.96.96,0,0,1,.38-.43Zm-2.015,9.507,2.015-1.164-1.01-3.98Z" transform="translate(117.728 -25.331)" fill="#fff"/>
      <path id="Trazado_1815" data-name="Trazado 1815" d="M121.058,169.969a4.5,4.5,0,0,1,1.467-.579,1.576,1.576,0,0,1,1.1.172,1.729,1.729,0,0,1,.693.964,5.528,5.528,0,0,1,.244,1.811,8.253,8.253,0,0,1-.385,2.6,6.791,6.791,0,0,1-1.1,2.078l1.544,3.663a.566.566,0,0,1,.036.19.779.779,0,0,1-.081.34.453.453,0,0,1-.195.235l-1.689.978c-.163.1-.281.109-.353.032a.811.811,0,0,1-.168-.244l-1.358-3.3-1.141.661v4.075a1.023,1.023,0,0,1-.1.421.652.652,0,0,1-.235.29l-1.63.942a.186.186,0,0,1-.235,0,.407.407,0,0,1-.1-.308v-12.36a.987.987,0,0,1,.1-.421.638.638,0,0,1,.235-.285Zm-1.4,6.61,1.4-.81a2.676,2.676,0,0,0,.865-.806,2.3,2.3,0,0,0,.34-1.308q0-.8-.34-.905a1.114,1.114,0,0,0-.865.19l-1.4.81Z" transform="translate(106.553 -19.395)" fill="#fff"/>
      <path id="Trazado_1816" data-name="Trazado 1816" d="M141,156.809a.186.186,0,0,1,.235,0,.407.407,0,0,1,.1.308v2.028a.955.955,0,0,1-.1.421.652.652,0,0,1-.235.29l-2.187,1.259v9.815a.955.955,0,0,1-.1.421.629.629,0,0,1-.235.29l-1.63.942a.186.186,0,0,1-.235,0,.4.4,0,0,1-.1-.3v-9.815l-2.187,1.263a.186.186,0,0,1-.235,0,.407.407,0,0,1-.1-.308v-2.028a.955.955,0,0,1,.1-.421.652.652,0,0,1,.235-.29Z" transform="translate(97.462 -12.505)" fill="#fff"/>
    </g>
    <g id="freepik--Datas" transform="translate(9.115 -36.698)">
      <path id="Trazado_1185" data-name="Trazado 1185" d="M175.558,385.458,162.153,376.1a.833.833,0,0,1-.331-.686V276.848L144.53,265.042l.674-1.372,17.623,12.04a.827.827,0,0,1,.344.686v98.612l13.075,9.077Z" transform="translate(92 -37)" fill="#005bea"/>
      <path id="Trazado_1186" data-name="Trazado 1186" d="M170.92,338.7a8,8,0,0,1,3.61,6.26c0,2.3-1.63,3.23-3.64,2.07a8,8,0,0,1-3.61-6.26C167.29,338.47,168.92,337.54,170.92,338.7Z" transform="translate(96.885 5.698)" fill="#005bea"/>
      <path id="Trazado_1187" data-name="Trazado 1187" d="M146.67,261a8,8,0,0,1,3.62,6.26c0,2.3-1.64,3.23-3.64,2.07a8,8,0,0,1-3.62-6.26C143,260.78,144.67,259.85,146.67,261Z" transform="translate(92 -37)" fill="#005bea"/>
    </g>
  </g>
</svg>
