<svg xmlns="http://www.w3.org/2000/svg" width="460.626" height="499.828" viewBox="0 0 460.626 499.828">
  <g id="Landing_page-amico" transform="translate(0)">
    <g id="freepik--Floor--inject-2">
      <path id="Trazado_1020" d="M392.656,272.093c-90.23-52.1-236-52.1-325.7,0s-89.18,136.56,1,188.66,236.07,52.1,325.72,0S482.9,324.223,392.656,272.093Z" fill="rgba(0,0,0,0.05)"/>
    </g>
    <g id="freepik--Floor--inject-21">
      <path id="Trazado_10201" d="M67.956,416.557c-90.18-52.1-90.7-136.56-1-188.66s235.47-52.1,325.7,0c34.616,20,56.017,44.747,64.188,70.6l-64.068-70.535.083.048.1.059.1.059.123.071.132.076.149.088.133.077.112.065.158.093.113.066.121.072.167.1.1.059.125.074.131.077.136.08.124.074.13.077.139.083.135.08.115.069.161.1.1.059.129.077.129.077.14.085.117.071.129.077.137.083.12.073.128.077.157.1.105.064.122.075.165.1.1.06.12.074.128.078.134.082.12.074.127.078.152.094.115.071.113.07.16.1.1.059.124.077.126.079.139.086.113.071.126.079.135.084.116.073.125.079.155.1.1.063.121.076.125.079.134.085.115.073.125.079.133.085.115.074.124.079.15.1.113.072.108.07.124.079.127.082.12.077.123.08.137.088.109.071.122.079.135.088.11.072.123.079.153.1.1.065.113.074.122.08.133.087.11.073.122.08.132.088.11.072.121.08.149.1.093.062.121.08.12.081.128.085.113.076.12.08.136.091.1.07.12.081.144.1.1.064.12.081.119.081.119.08.119.081.119.081.131.09.106.072.119.081.139.1.1.067.119.081.118.082.117.081.118.081.118.081.117.082.118.081.117.082.134.093.1.07.117.081.116.082.117.081.116.082.117.082.116.082.116.081.116.082.116.082.115.082.116.082.115.082.116.082.115.082.115.082.115.082.114.083.115.082.115.082.114.083.114.082.114.082.114.083.114.082.114.083.114.082.113.083.114.083.113.082.113.083.113.083.113.083.112.082.113.083.113.083c.074.056.149.111.224.166l.112.083.224.166.112.084q3.613,2.694,7.087,5.572,2.893,2.4,5.671,4.939,2.316,2.118,4.541,4.333,1.683,1.678,3.309,3.413,1.218,1.3,2.4,2.633a112.766,112.766,0,0,1,14.637,20.571q.969,1.767,1.864,3.575,1.141,2.305,2.156,4.671,1.119,2.615,2.07,5.3.488,1.373.927,2.76l.02.063h3.773v23.037l0,.128v.672c0,.034,0,.067,0,.1v.5c0,.067,0,.134,0,.2v.1c0,.067,0,.134,0,.2v.1c0,.034,0,.067,0,.1l0,.1v-.1c0-.025,0-.051,0-.076v-.08c0-.1,0-.2,0-.3v-.006c0-.1,0-.2,0-.3v-.457c0-.026,0-.051,0-.076v-.7l0-.093v-.122q-.035-2.1-.179-4.2-.26-3.713-.868-7.388-.613-3.713-1.572-7.356-.523-1.994-1.143-3.958l-.035-.111q-1.193-3.754-2.717-7.39-1.127-2.689-2.423-5.3-.889-1.8-1.854-3.558a112.72,112.72,0,0,0-14.6-20.542q-1.186-1.341-2.411-2.648-1.638-1.75-3.338-3.445-1.982-1.974-4.037-3.871-2.744-2.532-5.607-4.931-3.729-3.126-7.635-6.032l-.088-.065-.337-.25-.09-.067-.172-.128-.091-.067-.086-.063-.082-.06-.087-.064-.09-.066-.092-.068-.078-.056c-.028-.022-.057-.043-.086-.064l-.09-.065-.1-.07-.076-.055-.087-.064-.088-.063-.1-.071-.09-.065-.074-.054-.088-.063-.1-.07-.1-.069-.071-.051-.087-.063-.1-.068-.1-.071-.082-.058-.077-.055-.093-.067-.1-.071-.094-.067-.066-.047-.09-.065-.1-.071-.1-.071-.064-.045-.089-.063-.1-.071-.1-.071-.092-.065-.062-.044-.1-.069-.1-.072-.1-.071-.055-.039-.1-.066-.1-.073-.1-.072-.1-.068-.051-.035-.1-.073-.1-.072-.057-.039-.092-.065-.1-.071-.106-.073-.054-.038-.1-.067-.1-.069-.106-.073-.109-.075-.071-.049-.073-.05-.106-.072-.108-.074-.05-.034-.1-.066-.106-.072-.108-.074-.049-.033-.1-.068-.1-.07-.108-.074-.049-.033-.125-.084-.08-.054-.108-.073-.113-.076-.043-.029-.1-.067-.108-.073-.111-.074-.045-.03-.1-.067-.109-.073-.11-.073-.045-.03-.106-.07-.105-.07-.11-.073-.045-.03-.109-.072-.1-.068-.11-.073-.114-.076-.04-.026-.1-.068-.11-.072-.113-.075-.041-.027-.106-.069-.109-.072-.113-.073-.042-.027-.11-.072-.106-.069-.112-.073-.153-.1-.107-.069-.112-.072-.116-.075-.038-.024-.108-.07-.111-.072-.115-.073-.039-.026-.112-.071-.109-.07-.113-.073-.153-.1-.109-.07-.114-.072-.153-.1-.11-.07-.113-.071-.117-.074-.038-.024-.12-.076-.1-.065-.115-.073-.039-.024-.113-.072-.112-.07-.115-.072-.154-.1-.112-.07-.114-.071-.155-.1-.128-.079-.1-.062-.118-.073-.037-.023-.115-.071-.113-.07-.117-.072-.154-.1-.114-.07-.116-.071-.155-.1-.135-.082-.1-.059-.12-.073-.036-.022-.115-.071-.116-.07-.118-.072-.154-.093-.116-.07-.118-.071-.156-.094-.116-.07-.117-.071-.157-.094-.124-.074-.11-.066-.12-.072-.037-.022-.118-.07-.117-.07-.119-.071-.157-.093-.117-.07-.119-.07-.158-.093-.133-.079-.1-.061-.123-.072-.036-.021-.119-.07-.118-.069-.121-.071-.158-.092-.118-.07-.121-.07-.159-.092-.14-.082-.1-.057-.16-.093-.12-.069,67.961,95.967L392.656,227.9c90.24,52.13,90.67,136.56,1.02,188.66s-235.54,52.1-325.72,0C21.964,389.986-.707,355,.017,320.177H0V298.858H3.413l64.543,117.7Z" fill="#c5d3e6"/>
    </g>
    <g id="freepik--Floor--inject-22">
      <path id="Trazado_10202" d="M392.656,204.96c-90.23-52.1-236-52.1-325.7,0s-89.18,136.56,1,188.66,236.07,52.1,325.72,0,89.22-136.53-1.02-188.66Z" fill="#fff"/>
    </g>
    <g id="freepik--Floor--inject-23">
      <path id="Trazado_10203" d="M389.346,206.883c-88.39-51.037-231.188-51.037-319.059,0s-87.362,133.776.979,184.814,231.257,51.037,319.079,0,87.4-133.747-1-184.814Z" fill="#f9fafc"/>
    </g>
    <g id="freepik--Shadows--inject-2">
      <path id="Trazado_1021" d="M28.266,314.81c6.67-3.86,17.46-3.86,24.09,0s6.59,10.1-.08,13.95-17.46,3.86-24.09,0S21.586,318.66,28.266,314.81Z" fill="#e0e0e0"/>
      <path id="Trazado_1022" d="M419.456,287.29c7-4,18.31-4,25.27,0s6.91,10.59-.08,14.63-18.32,4-25.27,0S412.456,291.33,419.456,287.29Z" fill="#e0e0e0"/>
      <path id="Trazado_1023" d="M309.046,217.73,52.686,367.43l-10.86-6.27,256.36-149.7,10.86,6.27Z" fill="#e0e0e0"/>
      <path id="Trazado_1024" d="M377.206,297.09c-25-14.43-65.37-14.43-90.19,0-21.94,12.74-24.37,32.48-7.41,46.86-13.69-.85-27.87,1.76-38.32,7.83-18.35,10.66-18.25,27.95.21,38.61s48.31,10.66,66.65,0c14.6-8.48,17.51-21.16,8.79-31.35,21,3,44.18-.19,60.56-9.71,24.84-14.4,24.7-37.79-.29-52.24Z" fill="#e0e0e0"/>
    </g>
    <g id="freepik--Pictures--inject-2">
      <path id="Trazado_1025" d="M94.426,50.36,59.346,70.62l.08,26.81,35.08-20.26Z" fill="none"/>
      <path id="Trazado_1026" d="M94.426,50.36l.08,26.81,3.25,1.89-.09-30.57-3.24,1.87Z" fill="#f0f0f0"/>
      <path id="Trazado_1027" d="M59.426,97.43l.01,3.76,38.32-22.13-3.25-1.89L59.426,97.43Z" fill="#f5f5f5"/>
      <path id="Trazado_1028" d="M101.586,41.72,55.406,68.38l.11,39.59L101.7,81.31l-.11-39.59Zm-42.15,59.47V97.43l-.1-26.81,35.08-20.26,3.24-1.87.09,30.57-38.31,22.13Z" fill="#e0e0e0"/>
      <path id="Trazado_1029" d="M101.586,41.72l-3.25-1.89L52.156,66.49l3.25,1.89,46.18-26.66Z" fill="#f5f5f5"/>
      <path id="Trazado_1030" d="M52.156,66.49l.11,39.59,3.25,1.89-.11-39.59-3.25-1.89Z" fill="#f0f0f0"/>
      <path id="Trazado_1031" d="M369.986,126.65l35.08,20.26L405,173.72l-35.09-20.25.08-26.82Z" fill="none"/>
      <path id="Trazado_1032" d="M369.986,126.65l-.08,26.82-3.25,1.88.09-30.57,3.24,1.87Z" fill="#f0f0f0"/>
      <path id="Trazado_1033" d="M405,173.72l-.01,3.76-38.33-22.13,3.25-1.88L405,173.72Z" fill="#f5f5f5"/>
      <path id="Trazado_1034" d="M362.726,157.6l46.17,26.66.11-39.59-46.17-26.66Zm3.94-2.25.08-30.57,3.24,1.87,35.08,20.26L405,173.72v3.76l-38.33-22.13Z" fill="#e0e0e0"/>
      <path id="Trazado_1035" d="M362.836,118.01l3.25-1.89,46.17,26.66-3.25,1.89-46.17-26.66Z" fill="#f5f5f5"/>
      <path id="Trazado_1036" d="M412.256,142.78l-.11,39.59-3.25,1.89.11-39.59Z" fill="#f0f0f0"/>
      <path id="Trazado_1037" d="M148.636,66.9l1.26-.62Z" fill="none"/>
      <path id="Trazado_1038" d="M148.176,67.09l.46-.22Z" fill="none"/>
      <path id="Trazado_1039" d="M162.946,14.65l-9.59,5.54-9.75,5.63,9.75-5.63,9.59-5.54Z" fill="none"/>
      <path id="Trazado_1040" d="M163.036,46.28l-.02-8.9-.03-8.14.03,8.14Z" fill="none"/>
      <path id="Trazado_1041" d="M149.9,66.28l.27-.13Z" fill="none"/>
      <path id="Trazado_1042" d="M163.146,85.3l-.02-7.44-.02-6.52.02,6.52Z" fill="none"/>
      <path id="Trazado_1043" d="M144.456,68.65q1.841-.66,3.72-1.53A38.592,38.592,0,0,1,144.456,68.65Z" fill="none"/>
      <path id="Trazado_1044" d="M134.456,42.12l.08,28.59.05,16.57-.05-16.57Z" fill="none"/>
      <path id="Trazado_1045" d="M163.126,77.85V71.34l-.3.17-.54.32c-4.81,2.91-9.64,7.47-14.13,12.41-.75.81-1.48,1.64-2.21,2.47-3.79,4.34-7.49,8.94-11.31,13.24v10.52l4.59-2.65a101.082,101.082,0,0,1,23.9-29.97Z" fill="#ebebeb"/>
      <path id="Trazado_1046" d="M163.176,94V85.3a55.21,55.21,0,0,0-9.76,14.35Z" fill="#ebebeb"/>
      <path id="Trazado_1047" d="M153.386,99.65a55.186,55.186,0,0,1,9.76-14.35V77.85a101.064,101.064,0,0,0-23.89,30l14.15-8.17-.02-.03Z" fill="#fafafa"/>
      <path id="Trazado_1050" d="M143.786,68.88l.67-.23q1.841-.66,3.72-1.53l.46-.22,1.26-.62c.73-.37,1.45-.76,2.18-1.17-.73.41-1.45.8-2.18,1.17l.27-.13c.63-.33,1.27-.68,1.91-1l.41-.23.34-.2a69.842,69.842,0,0,0,9.82-7l.42-.37v-11c-7,3.57-13.85,4.68-19.39,3a17.005,17.005,0,0,1-9.22-7.26l.08,28.59a33.485,33.485,0,0,0,9.25-1.8Z" fill="#fafafa"/>
      <path id="Trazado_1051" d="M148.136,84.24c4.49-4.94,9.32-9.5,14.13-12.41l.54-.32.3-.17v-6.3a136.454,136.454,0,0,0-25.77,19.58c-.93.89-1.86,1.79-2.79,2.66V99.95c3.82-4.3,7.52-8.9,11.31-13.24.8-.83,1.53-1.62,2.28-2.47Z" fill="#fafafa"/>
      <path id="Trazado_1052" d="M163.086,65.09V57.33l-.42.37a69.844,69.844,0,0,1-9.82,7l-.34.2-.41.23c-.64.36-1.28.71-1.91,1l-.27.13-.17.09.17-.09-1.26.62-.46.22q-1.869.87-3.72,1.53l.7-.26-.7.26-.67.23a33.431,33.431,0,0,1-9.25,1.83l.05,16.57c.93-.87,1.86-1.77,2.79-2.66A136.5,136.5,0,0,1,163.086,65.09Z" fill="#ebebeb"/>
      <path id="Trazado_1053" d="M163.016,37.38V29.24c-4.41-1-7.83-4.24-9.63-9.05l-9.75,5.63a20.184,20.184,0,0,0,19.38,11.56Z" fill="#fafafa"/>
      <path id="Trazado_1054" d="M143.646,49.24c5.54,1.72,12.41.61,19.39-3v-8.9a20.186,20.186,0,0,1-19.41-11.56l-9.2,5.31v11a17.005,17.005,0,0,0,9.22,7.15Z" fill="#ebebeb"/>
      <path id="Trazado_1055" d="M164.546,11.88l-31.74,18.33.24,83,31.74-18.32-.24-83.01Zm-29.9,98.59V87.28l-.05-16.57-.14-28.62v-11l9.18-5.3,9.7-5.6,9.59-5.54V94l-9.79,5.65-14.15,8.17-4.34,2.65Z" fill="#fff"/>
      <path id="Trazado_1057" d="M149.726,66.37l.17-.09" fill="none"/>
      <path id="Trazado_1058" d="M152.076,65.09c-.73.41-1.45.8-2.18,1.17" fill="none"/>
      <path id="Línea_1" d="M149.9,66.28" fill="none"/>
      <path id="Trazado_1059" d="M144.456,68.65l.7-.26" fill="none"/>
      <path id="Trazado_1060" d="M162.986,29.24V14.65l-9.65,5.54c1.82,4.81,5.24,8.02,9.65,9.05Z" fill="#ebebeb"/>
      <path id="Trazado_1061" d="M164.786,94.91l-31.74,18.33v2.21l33.64-19.43Z" fill="#cacaca"/>
      <path id="Trazado_1062" d="M164.546,11.88l.24,83.03,1.9,1.11-.24-85.23-1.9,1.09Z" fill="#f0f0f0"/>
      <path id="Trazado_1063" d="M171.556,1.95l-43.89,25.33.28,97,43.88-25.34-.27-96.99Zm-38.51,113.5v-2.21l-.24-83,31.74-18.33,1.9-1.09.25,85.23-33.65,19.4Z" fill="#e0e0e0"/>
      <path id="Trazado_1064" d="M171.556,1.95,167.936,0l-43.88,25.34,3.62,1.94,43.88-25.33Z" fill="#f5f5f5"/>
      <path id="Trazado_1065" d="M124.056,25.34l.27,97,3.62,1.94-.27-97-3.62-1.94Z" fill="#f0f0f0"/>
      <path id="Trazado_1066" d="M83.286,60.54l9.56,7.53.02,7.36L61.046,93.81l-.02-7.36L67.1,74.4l5.44,4.23-1.92,5.98,2.79-5.31Z" fill="#e0e0e0"/>
      <path id="Trazado_1067" d="M72.826,64.25c1.5-.86,2.72-.17,2.73,1.55a6,6,0,0,1-2.71,4.68c-1.5.87-2.71.17-2.72-1.55A6.005,6.005,0,0,1,72.826,64.25Z" fill="#e0e0e0"/>
      <path id="Trazado_1068" d="M381.136,136.83l-9.57,7.54-.02,7.36,31.82,18.37.02-7.36-6.06-12.05-5.45,4.23,1.93,5.98-2.8-5.31-9.87-18.76Z" fill="#e0e0e0"/>
      <path id="Trazado_1069" d="M391.586,140.54c-1.5-.86-2.72-.17-2.72,1.55a6.007,6.007,0,0,0,2.7,4.69c1.5.86,2.72.17,2.72-1.56a5.944,5.944,0,0,0-2.7-4.68Z" fill="#e0e0e0"/>
    </g>
    <g id="freepik--Plants--inject-2">
      <path id="Trazado_1070" d="M24.106,292.63l16.16.48,16.16-.48c.7,10.92-1.43,22-4.37,27.47a7.408,7.408,0,0,1-3.2,3.26c-4.78,2.73-12.52,2.73-17.22,0a7.236,7.236,0,0,1-3.2-3.34c-2.91-5.47-5.02-16.53-4.33-27.39Z" fill="#fff"/>
      <path id="Trazado_1071" d="M28.876,286.02c-6.33,3.65-6.36,9.58-.07,13.23s16.52,3.66,22.85,0,6.37-9.58.08-13.23S35.216,282.36,28.876,286.02Z" fill="#ebebeb"/>
      <path id="Trazado_1072" d="M31.386,287.47c-4.94,2.85-5,7.48-.06,10.33s12.89,2.85,17.83,0,5-7.48.06-10.33S36.336,284.62,31.386,287.47Z" fill="#e0e0e0"/>
      <g id="Grupo_29" opacity="0.15">
        <path id="Trazado_1073" d="M31.386,287.47c-4.94,2.85-5,7.48-.06,10.33s12.89,2.85,17.83,0,5-7.48.06-10.33S36.336,284.62,31.386,287.47Z"/>
      </g>
      <path id="Trazado_1074" d="M13.7,223.68c36.42,11.92,36.75,36.28,28.54,53.63-2.07,3.52-8.34,5.4-13.79-16.18l9.57,1.23-11.15-5.65-2.9-8.62,9.3.69-11.8-5a174.8,174.8,0,0,0-7.77-20.1Z" fill="#005bea"/>
      <path id="Trazado_1075" d="M13.7,223.68c36.42,11.92,36.75,36.28,28.54,53.63-2.07,3.52-8.34,5.4-13.79-16.18l9.57,1.23-11.15-5.65-2.9-8.62,9.3.69-11.8-5a174.8,174.8,0,0,0-7.77-20.1Z" fill="rgba(0,0,0,0.2)"/>
      <path id="Trazado_1076" d="M13.7,223.68c36.42,11.92,36.75,36.28,28.54,53.63-2.07,3.52-8.34,5.4-13.79-16.18l9.57,1.23-11.15-5.65-2.9-8.62,9.3.69-11.8-5a174.8,174.8,0,0,0-7.77-20.1Z" fill="rgba(255,255,255,0.2)"/>
      <path id="Trazado_1077" d="M24,229.77c19.21,14.58,20.94,31.32,15.52,48.73,1.92-15.36,3.99-30.89-15.52-48.73Z" fill="#fff"/>
      <path id="Trazado_1078" d="M75.386,248.43c-35.9,5.05-40.26,27.68-35.49,45.21,1.34,3.61,6.86,6.41,15.53-12.78l-9.09-.45L57.656,277l4.13-7.58-8.77-.9,11.81-2.66a163.5,163.5,0,0,1,10.56-17.43Z" fill="#005bea"/>
      <path id="Trazado_1079" d="M75.386,248.43c-35.9,5.05-40.26,27.68-35.49,45.21,1.34,3.61,6.86,6.41,15.53-12.78l-9.09-.45L57.656,277l4.13-7.58-8.77-.9,11.81-2.66a163.5,163.5,0,0,1,10.56-17.43Z" fill="rgba(255,255,255,0.2)"/>
      <path id="Trazado_1080" d="M75.386,248.43c-35.9,5.05-40.26,27.68-35.49,45.21,1.34,3.61,6.86,6.41,15.53-12.78l-9.09-.45L57.656,277l4.13-7.58-8.77-.9,11.81-2.66a163.5,163.5,0,0,1,10.56-17.43Z" fill="rgba(0,0,0,0.1)"/>
      <path id="Trazado_1081" d="M64.776,252.39c-20.31,10.38-24.7,25.7-22.54,42.81.76-14.63,1.41-29.44,22.54-42.81Z" fill="#fff"/>
      <path id="Trazado_1082" d="M3.2,256.91c32.92.54,39.38,20.45,37,36.77-.8,3.41-5.47,6.55-15.42-9.77l8.16-1.43-10.59-1.8-4.57-6.37,7.8-1.79-10.94-1.08A150.178,150.178,0,0,0,3.2,256.91Z" fill="#005bea"/>
      <path id="Trazado_1083" d="M13.2,259.29c19.46,7.09,25.14,20.36,25.14,36.06-2.36-13.09-4.6-26.37-25.14-36.06Z" fill="#fff"/>
      <path id="Trazado_1084" d="M3.2,256.91c32.92.54,39.38,20.45,37,36.77-.8,3.41-5.47,6.55-15.42-9.77l8.16-1.43-10.59-1.8-4.57-6.37,7.8-1.79-10.94-1.08A150.178,150.178,0,0,0,3.2,256.91Z" fill="rgba(255,255,255,0.2)"/>
      <path id="Trazado_1085" d="M415.106,264.03l16.94.5,17-.5c.73,11.45-1.5,23.11-4.58,28.81a7.717,7.717,0,0,1-3.35,3.41c-5,2.89-13.08,2.89-18,0a7.512,7.512,0,0,1-3.35-3.5C416.586,287.02,414.336,275.42,415.106,264.03Z" fill="#fff"/>
      <path id="Trazado_1086" d="M420.106,257.09c-6.64,3.84-6.68,10.05-.08,13.89s17.33,3.83,24,0,6.67-10.05.08-13.89S426.746,253.26,420.106,257.09Z" fill="#ebebeb"/>
      <path id="Trazado_1087" d="M422.736,258.62c-5.18,3-5.21,7.84-.07,10.83s13.52,3,18.7,0,5.21-7.84.06-10.83S427.916,255.63,422.736,258.62Z" fill="#e0e0e0"/>
      <g id="Grupo_30" opacity="0.15">
        <path id="Trazado_1088" d="M422.736,258.62c-5.18,3-5.21,7.84-.07,10.83s13.52,3,18.7,0,5.21-7.84.06-10.83S427.916,255.63,422.736,258.62Z"/>
      </g>
      <path id="Trazado_1089" d="M440.7,229.35c2.75-3.42,5.95-6.49,8.48-10.09,1.73-2.46,3.17-5.46,2.44-8.37a7.509,7.509,0,0,0-5.93-5.23,11.382,11.382,0,0,0-8,1.78,24.3,24.3,0,0,0-6,5.73,59.829,59.829,0,0,0-12.6,42.7,9.007,9.007,0,0,0,1.58,4.91,4.9,4.9,0,0,0,5.06,1.55c4.62-1.37,4-7.61,4.76-11.27a51.092,51.092,0,0,1,10.19-21.71h.02Z" fill="#005bea"/>
      <path id="Trazado_1090" d="M440.7,229.35c2.75-3.42,5.95-6.49,8.48-10.09,1.73-2.46,3.17-5.46,2.44-8.37a7.509,7.509,0,0,0-5.93-5.23,11.382,11.382,0,0,0-8,1.78,24.3,24.3,0,0,0-6,5.73,59.829,59.829,0,0,0-12.6,42.7,9.007,9.007,0,0,0,1.58,4.91,4.9,4.9,0,0,0,5.06,1.55c4.62-1.37,4-7.61,4.76-11.27a51.092,51.092,0,0,1,10.19-21.71h.02Z" fill="rgba(255,255,255,0.2)"/>
      <path id="Trazado_1091" d="M425.456,257.68a.41.41,0,0,0,.33-.38c.32-7.41,2.73-32.7,20.16-47a.4.4,0,0,0,.06-.57.413.413,0,0,0-.57-.06c-17.69,14.57-20.13,40.15-20.46,47.65a.413.413,0,0,0,.39.42l.09-.06Z" fill="#f0f0f0"/>
      <path id="Trazado_1092" d="M422.916,258.49a12.346,12.346,0,0,0,5.66,7.84,15.91,15.91,0,0,0,8.56,1.44,37.87,37.87,0,0,0,8.7-2.06c1.39-.47,2.95-1.11,3.1-2.84a3.082,3.082,0,0,0-1-2.44,11.33,11.33,0,0,0-.9-.78.89.89,0,0,1,.47-1.6,20.672,20.672,0,0,0,2.48-.31,10.884,10.884,0,0,0,5.2-2.35,8.714,8.714,0,0,0,2.41-3.56c.42-1.16.54-2.62-.35-3.49a3.757,3.757,0,0,0-1.92-.84c-.62-.13-1.24-.25-1.87-.35a.83.83,0,0,1-.19-1.58l2.63-1.09a4.941,4.941,0,0,0,2-1.24,4.329,4.329,0,0,0,.51-3.62c-.32-1.65-.89-3.23-1.28-4.87a10.471,10.471,0,0,1-.17-5,41.73,41.73,0,0,0-14.73,1,10.6,10.6,0,0,0-4,1.76c-1.64,1.31-2.06,3.28-1.89,5.41v.012a.38.38,0,0,1-.71.188l-1.7-3.03a2.009,2.009,0,0,0-2.62-.84,12.1,12.1,0,0,0-3.84,3,6.667,6.667,0,0,0-1.64,4.92,43.064,43.064,0,0,0,1.22,7.22.636.636,0,0,1,.016.144.66.66,0,0,1-1.016.556l-.08-.05a2.23,2.23,0,0,0-1.59-.46c-1.48.18-1.86,1.68-2,3a25.021,25.021,0,0,0,.54,5.91Z" fill="#005bea"/>
      <path id="Trazado_1093" d="M422.916,258.49a12.346,12.346,0,0,0,5.66,7.84,15.91,15.91,0,0,0,8.56,1.44,37.87,37.87,0,0,0,8.7-2.06c1.39-.47,2.95-1.11,3.1-2.84a3.082,3.082,0,0,0-1-2.44,11.33,11.33,0,0,0-.9-.78.89.89,0,0,1,.47-1.6,20.672,20.672,0,0,0,2.48-.31,10.884,10.884,0,0,0,5.2-2.35,8.714,8.714,0,0,0,2.41-3.56c.42-1.16.54-2.62-.35-3.49a3.757,3.757,0,0,0-1.92-.84c-.62-.13-1.24-.25-1.87-.35a.83.83,0,0,1-.19-1.58l2.63-1.09a4.941,4.941,0,0,0,2-1.24,4.329,4.329,0,0,0,.51-3.62c-.32-1.65-.89-3.23-1.28-4.87a10.471,10.471,0,0,1-.17-5,41.73,41.73,0,0,0-14.73,1,10.6,10.6,0,0,0-4,1.76c-1.64,1.31-2.06,3.28-1.89,5.41v.012a.38.38,0,0,1-.71.188l-1.7-3.03a2.009,2.009,0,0,0-2.62-.84,12.1,12.1,0,0,0-3.84,3,6.667,6.667,0,0,0-1.64,4.92,43.064,43.064,0,0,0,1.22,7.22.636.636,0,0,1,.016.144.66.66,0,0,1-1.016.556l-.08-.05a2.23,2.23,0,0,0-1.59-.46c-1.48.18-1.86,1.68-2,3a25.021,25.021,0,0,0,.54,5.91Z" fill="rgba(0,0,0,0.2)"/>
      <path id="Trazado_1094" d="M422.916,258.49a12.346,12.346,0,0,0,5.66,7.84,15.91,15.91,0,0,0,8.56,1.44,37.87,37.87,0,0,0,8.7-2.06c1.39-.47,2.95-1.11,3.1-2.84a3.082,3.082,0,0,0-1-2.44,11.33,11.33,0,0,0-.9-.78.89.89,0,0,1,.47-1.6,20.672,20.672,0,0,0,2.48-.31,10.884,10.884,0,0,0,5.2-2.35,8.714,8.714,0,0,0,2.41-3.56c.42-1.16.54-2.62-.35-3.49a3.757,3.757,0,0,0-1.92-.84c-.62-.13-1.24-.25-1.87-.35a.83.83,0,0,1-.19-1.58l2.63-1.09a4.941,4.941,0,0,0,2-1.24,4.329,4.329,0,0,0,.51-3.62c-.32-1.65-.89-3.23-1.28-4.87a10.471,10.471,0,0,1-.17-5,41.73,41.73,0,0,0-14.73,1,10.6,10.6,0,0,0-4,1.76c-1.64,1.31-2.06,3.28-1.89,5.41v.012a.38.38,0,0,1-.71.188l-1.7-3.03a2.009,2.009,0,0,0-2.62-.84,12.1,12.1,0,0,0-3.84,3,6.667,6.667,0,0,0-1.64,4.92,43.064,43.064,0,0,0,1.22,7.22.636.636,0,0,1,.016.144.66.66,0,0,1-1.016.556l-.08-.05a2.23,2.23,0,0,0-1.59-.46c-1.48.18-1.86,1.68-2,3a25.021,25.021,0,0,0,.54,5.91Z" fill="rgba(255,255,255,0.2)"/>
      <path id="Trazado_1095" d="M430.726,265.93a59.183,59.183,0,0,1,4-11.48.412.412,0,0,1,.14-.3l.27-.6a37.1,37.1,0,0,0-3.92-13.14.41.41,0,1,1,.7-.41,37.645,37.645,0,0,1,3.87,12.22c3.35-6.72,8.7-14.59,17-20.33a.391.391,0,0,1,.56.1.4.4,0,0,1,.073.231.4.4,0,0,1-.173.329c-8.52,5.93-13.89,14.14-17.16,21a24.737,24.737,0,0,1,14-1.9.4.4,0,0,1,.328.393.394.394,0,0,1-.008.077.389.389,0,0,1-.32.32h-.15c-.08,0-7.79-1.41-14.45,2.31a58.9,58.9,0,0,0-3.97,11.34.389.389,0,0,1-.32.31h-.16a.391.391,0,0,1-.319-.384.411.411,0,0,1,.009-.086Z" fill="#f0f0f0"/>
    </g>
    <g id="freepik--landing-page--inject-2">
      <path id="Trazado_1096" d="M48.886,179.24l-.04-14.27-7.44-4.23.04,13.93v.32l7.44,4.25Z" fill="#005bea"/>
      <path id="Trazado_1097" d="M49.336,344.47l-.47-165.23-7.44-4.25.46,164.92a3.136,3.136,0,0,0,1.25,2.79l7.34,4.48a3.094,3.094,0,0,1-1.14-2.71Z" fill="#005bea"/>
      <path id="Trazado_1098" d="M49.336,344.47l-.47-165.23-7.44-4.25.46,164.92a3.136,3.136,0,0,0,1.25,2.79l7.34,4.48a3.094,3.094,0,0,1-1.14-2.71Z" fill="rgba(255,255,255,0.2)"/>
      <path id="Trazado_1099" d="M53.776,346.99a5.419,5.419,0,0,1-.86.4A5.419,5.419,0,0,0,53.776,346.99Z" fill="#455a64"/>
      <path id="Trazado_1102" d="M48.876,164.94v-8.21a9.718,9.718,0,0,1,4.36-7.64l249-143.75a3.154,3.154,0,0,1,3.08-.33L297.966.5a3.064,3.064,0,0,0-3.18.26l-249,143.75a9.689,9.689,0,0,0-4.39,7.62v8.54l7.44,4.24.04.03Z" fill="#005bea"/>
      <path id="Trazado_1103" d="M48.876,164.94v-8.21a9.718,9.718,0,0,1,4.36-7.64l249-143.75a3.154,3.154,0,0,1,3.08-.33L297.966.5a3.064,3.064,0,0,0-3.18.26l-249,143.75a9.689,9.689,0,0,0-4.39,7.62v8.54l7.44,4.24.04.03Z" fill="rgba(255,255,255,0.3)"/>
      <path id="Trazado_1104" d="M48.886,179.24l-.04-14.27-7.44-4.23.04,13.93v.32l7.44,4.25Z" fill="rgba(0,0,0,0.2)"/>
      <path id="Trazado_1105" d="M48.886,179.24l-.04-14.27-7.44-4.23.04,13.93v.32l7.44,4.25Z" fill="rgba(255,255,255,0.2)"/>
      <path id="Trazado_1106" d="M302.226,5.36c2.43-1.4,4.41-.27,4.42,2.53v8.22L48.876,164.94v-8.21a9.718,9.718,0,0,1,4.36-7.64L302.226,5.36Z" fill="#005bea"/>
      <path id="Trazado_1107" d="M285.536,18.96c1.3-.76,2.36-.15,2.36,1.34a5.162,5.162,0,0,1-2.35,4.07c-1.3.76-2.36.15-2.36-1.34A5.134,5.134,0,0,1,285.536,18.96Z" fill="#fff"/>
      <path id="Trazado_1108" d="M292.726,14.8c1.3-.75,2.36-.14,2.36,1.35a5.134,5.134,0,0,1-2.35,4.07c-1.3.75-2.36.15-2.36-1.35a5.192,5.192,0,0,1,2.35-4.07Z" fill="#fff"/>
      <path id="Trazado_1109" d="M299.906,10.66c1.31-.76,2.36-.15,2.37,1.34a5.192,5.192,0,0,1-2.35,4.09c-1.3.76-2.36.15-2.37-1.34A5.2,5.2,0,0,1,299.906,10.66Z" fill="#fff"/>
      <path id="Trazado_1110" d="M100.716,126.86c1-.56,1.87-.46,2.33.26l2.34,3.6c.47.72,1.36.82,2.33.26L306.636,16.09V30.38L48.886,179.26V164.97l7.64-4.41a5.887,5.887,0,0,0,2.33-2.95l2.3-6.28a5.792,5.792,0,0,1,2.32-2.94l37.24-21.53Z" fill="#e0e0e0"/>
      <path id="Trazado_1111" d="M306.676,30.4l.47,165.24a9.677,9.677,0,0,1-4.39,7.6L53.776,346.99c-2.44,1.41-4.41.28-4.42-2.52l-.47-165.23L306.676,30.4Z" fill="#afc4ec"/>
      <path id="Trazado_1113" d="M296.486,24.91c1.73-1,3.13-.2,3.14,1.79a6.9,6.9,0,0,1-3.12,5.39l-218.17,126c-1.73,1-3.14.19-3.15-1.8a6.9,6.9,0,0,1,3.13-5.4L296.486,24.91Z" fill="#fff"/>
      <path id="Trazado_1114" d="M53.006,166.24a.312.312,0,0,1,.33,0c.16.11.15.44,0,.73l-1.37,2.25,3.58-2.13a.27.27,0,0,1,.444.207.208.208,0,0,1,0,.043.941.941,0,0,1-.44.77l-3.61,2.08,1.38.66c.18.09.2.4,0,.69a1,1,0,0,1-.32.36.352.352,0,0,1-.31,0l-2.21-1.06-.09-.09v-.4l.08-.18,2.21-3.62a.808.808,0,0,1,.33-.31Z" fill="#e0e0e0"/>
      <path id="Trazado_1115" d="M60.826,161.73a.33.33,0,0,1,.3,0l2.21,1.01.08.1v.45l-.07.18-2.2,3.62a.854.854,0,0,1-.3.3.291.291,0,0,1-.32,0c-.17-.1-.16-.43,0-.73l1.37-2.24-3.56,2.12a.276.276,0,0,1-.443-.22.269.269,0,0,1,0-.04,1,1,0,0,1,.43-.76l3.62-2.08-1.38-.66c-.19-.09-.19-.4,0-.71a.888.888,0,0,1,.26-.34Z" fill="#e0e0e0"/>
      <path id="Trazado_1116" d="M68.246,157.44a2,2,0,0,1,1.5-.28l.33-.44a.841.841,0,0,1,.24-.22.426.426,0,0,1,.24,0c.15,0,.22.18.2.4l-.19,1.36a1,1,0,0,1-.19.45.814.814,0,0,1-.24.22l-.11.05-1.07.3a.244.244,0,0,1-.08.013.251.251,0,0,1-.25-.243.851.851,0,0,1,.2-.61l.1-.14a1.381,1.381,0,0,0-.67.2,3.511,3.511,0,0,0-1.59,2.74c0,1,.72,1.42,1.6.91a3.417,3.417,0,0,0,1.39-1.74,1.007,1.007,0,0,1,.38-.49.444.444,0,0,1,.21-.06c.22,0,.3.28.18.59a5.426,5.426,0,0,1-2.16,2.64c-1.36.78-2.47.15-2.48-1.42a5.445,5.445,0,0,1,2.46-4.23Z" fill="#e0e0e0"/>
      <g id="Grupo_32" opacity="0.3">
        <path id="Trazado_1117" d="M53.006,166.24a.312.312,0,0,1,.33,0c.16.11.15.44,0,.73l-1.37,2.25,3.58-2.13a.27.27,0,0,1,.444.207.208.208,0,0,1,0,.043.941.941,0,0,1-.44.77l-3.61,2.08,1.38.66c.18.09.2.4,0,.69a1,1,0,0,1-.32.36.352.352,0,0,1-.31,0l-2.21-1.06-.09-.09v-.4l.08-.18,2.21-3.62a.808.808,0,0,1,.33-.31Z"/>
      </g>
      <g id="Grupo_33" opacity="0.3">
        <path id="Trazado_1118" d="M60.826,161.73a.33.33,0,0,1,.3,0l2.21,1.01.08.1v.45l-.07.18-2.2,3.62a.854.854,0,0,1-.3.3.291.291,0,0,1-.32,0c-.17-.1-.16-.43,0-.73l1.37-2.24-3.56,2.12a.276.276,0,0,1-.443-.22.269.269,0,0,1,0-.04,1,1,0,0,1,.43-.76l3.62-2.08-1.38-.66c-.19-.09-.19-.4,0-.71a.888.888,0,0,1,.26-.34Z"/>
      </g>
      <g id="Grupo_34" opacity="0.3">
        <path id="Trazado_1119" d="M68.246,157.44a2,2,0,0,1,1.5-.28l.33-.44a.841.841,0,0,1,.24-.22.426.426,0,0,1,.24,0c.15,0,.22.18.2.4l-.19,1.36a1,1,0,0,1-.19.45.814.814,0,0,1-.24.22l-.11.05-1.07.3a.244.244,0,0,1-.08.013.251.251,0,0,1-.25-.243.851.851,0,0,1,.2-.61l.1-.14a1.381,1.381,0,0,0-.67.2,3.511,3.511,0,0,0-1.59,2.74c0,1,.72,1.42,1.6.91a3.417,3.417,0,0,0,1.39-1.74,1.007,1.007,0,0,1,.38-.49.444.444,0,0,1,.21-.06c.22,0,.3.28.18.59a5.426,5.426,0,0,1-2.16,2.64c-1.36.78-2.47.15-2.48-1.42a5.445,5.445,0,0,1,2.46-4.23Z"/>
      </g>
      <path id="Trazado_1126" d="M198.216,234.39l-18.88,23.46,18.88-23.46Z" fill="#005bea"/>
      <g id="Grupo_41" opacity="0.7">
        <path id="Trazado_1131" d="M116.766,156.44l.02,9.05-51.77,29.89L65,186.34l51.77-29.9Z" fill="#fff"/>
        <path id="Trazado_1132" d="M95.986,182.44l.02,4.5-30.96,17.88-.01-4.5,30.95-17.88Z" fill="#fff"/>
        <path id="Trazado_1133" d="M179.786,120.1l.02,5.28-14.99,8.65-.02-5.27,14.99-8.66Z" fill="#fff"/>
        <path id="Trazado_1134" d="M208.536,103.5l.01,5.28-19.98,11.54-.01-5.28Z" fill="#fff"/>
        <path id="Trazado_1135" d="M266.326,70.14l.01,5.28-14.99,8.65-.01-5.27Z" fill="#fff"/>
        <path id="Trazado_1136" d="M295.076,53.54l.01,5.28-19.98,11.54-.02-5.28Z" fill="#fff"/>
        <path id="Trazado_1137" d="M241.046,84.73l.01,5.28-23.85,13.78-.02-5.28,23.86-13.78Z" fill="#fff"/>
      </g>
    </g>
    <g id="freepik--Character--inject-2">
      <path id="Trazado_1211" d="M299.086,247.41c-8.52,5.92-18.12,10-25.23,17.95-13.3,14.81-13.61,38.66-3.17,55.6s29.86,27.13,49.65,29.47c20.74,2.44,42.5-3.29,58.78-16.38s26.62-33.55,26.61-54.43-10.7-41.68-28.19-53.09c-16-10.41-38.9-13.38-54.91-1.47-8.1,6-13.49,14.91-21.57,20.95-.66.48-1.31.94-1.97,1.4Z" fill="#37474f"/>
      <path id="Trazado_1212" d="M299.086,247.41c-8.52,5.92-18.12,10-25.23,17.95-13.3,14.81-13.61,38.66-3.17,55.6s29.86,27.13,49.65,29.47c20.74,2.44,42.5-3.29,58.78-16.38s26.62-33.55,26.61-54.43-10.7-41.68-28.19-53.09c-16-10.41-38.9-13.38-54.91-1.47-8.1,6-13.49,14.91-21.57,20.95-.66.48-1.31.94-1.97,1.4Z" fill="rgba(0,0,0,0.2)"/>
      <path id="Trazado_1213" d="M299.086,247.41c-8.52,5.92-18.12,10-25.23,17.95-13.3,14.81-13.61,38.66-3.17,55.6s29.86,27.13,49.65,29.47c20.74,2.44,42.5-3.29,58.78-16.38s26.62-33.55,26.61-54.43-10.7-41.68-28.19-53.09c-16-10.41-38.9-13.38-54.91-1.47-8.1,6-13.49,14.91-21.57,20.95-.66.48-1.31.94-1.97,1.4Z" fill="rgba(255,255,255,0.1)"/>
      <path id="Trazado_1214" d="M302.556,334.23l.06-.42a22.477,22.477,0,0,1,18.18-18.72,70.7,70.7,0,0,0,23.28-8.92c5.09-3.07,9.89-6.84,15.6-8.51a25.4,25.4,0,0,1,16.81,1c-4.79-5-13-7.26-19.59-5,4.55-7,8.55-14.46,10.12-22.63s.46-17.13-4.47-23.83a24,24,0,0,0-37-2c-4.88,5.34-7.63,12.84-10.83,19.32-2.31,4.66-4.68,9.42-8.48,13-5.72,5.35-13.95,7.28-19.88,12.4-6.73,5.81-9.63,15.09-9.66,24a70.8,70.8,0,0,0,2.6,17.73,67.332,67.332,0,0,0,24.33,14.87,26.429,26.429,0,0,1-1.07-12.29Z" fill="rgba(0,0,0,0.1)"/>
      <g id="Grupo_56" opacity="0.2">
        <path id="Trazado_1215" d="M394.576,276.75a61.2,61.2,0,0,0-52-59.18,44.683,44.683,0,0,0-5.88,1,59.661,59.661,0,0,1,56.27,58.22c.38,19.44-9.12,39.25-25.43,53-12.78,10.78-29.76,17.92-48.42,20.49l1.2.16c1.67.19,3.36.33,5,.42,16.57-3.21,31.59-10.05,43.2-19.84,16.73-14.07,26.45-34.35,26.06-54.27Z" fill="#fff"/>
      </g>
      <path id="Trazado_1216" d="M280.836,327.74a59.256,59.256,0,0,1,1,9.7l2.3-.87a5.95,5.95,0,0,1,6.39,1.45l.12.12a2.318,2.318,0,0,0,3.99-1.52l.31-9.8-14.11.92Z" fill="#ffa8a7"/>
      <path id="Trazado_1217" d="M289.716,364.09c-4.77,5.11-13.56,9.58-19.95,5.22l.71,1.63c6.39,4.35,15.18-.11,20-5.22s1.68-8.65,6-13.18a15.514,15.514,0,0,0,3.72-5.52c-.19-.48-.38-1.12-.6-1.85a19.744,19.744,0,0,1-3.83,5.75c-4.37,4.57-1.27,8.11-6.05,13.17Z" fill="#f5f5f5"/>
      <path id="Trazado_1218" d="M297.176,339.87a9.492,9.492,0,0,1-1.51-3.48,2,2,0,0,0-.94-1.42l-.05,1.65a2.32,2.32,0,0,1-4,1.52l-.12-.12a5.95,5.95,0,0,0-6.39-1.45l-2.34.88a1.8,1.8,0,0,0-1.16,1.72c.15,6.7-3,15.59-6.26,20.48-3.37,1.4-6.29,6-4.8,9.36l.15.34c6.39,4.36,15.18-.11,19.95-5.22s1.68-8.64,6-13.17a19.744,19.744,0,0,0,3.83-5.75,21.3,21.3,0,0,0-2.36-5.34Z" fill="#455a64"/>
      <path id="Trazado_1219" d="M287.826,349.54a.824.824,0,0,0,1.09-.36.8.8,0,0,0-.33-1.08,9.348,9.348,0,0,0-9.18,0c-.14.53-.29,1.05-.45,1.57a9.009,9.009,0,0,1,8.87-.13Z" fill="#fff"/>
      <path id="Trazado_1220" d="M289.006,345.92a.82.82,0,0,0,.75-1.45,9.82,9.82,0,0,0-9.54.08c-.1.55-.21,1.09-.33,1.64C282.666,344.72,285.476,344.14,289.006,345.92Z" fill="#fff"/>
      <path id="Trazado_1221" d="M286.536,353.15a.824.824,0,0,0,1.09-.37.813.813,0,0,0-.34-1.08,9.3,9.3,0,0,0-9-.09c-.2.57-.42,1.12-.64,1.67a9.01,9.01,0,0,1,8.89-.13Z" fill="#fff"/>
      <path id="Trazado_1222" d="M274.416,359.65c-3.37,1.4-6.29,6-4.8,9.36l.15.34c6.29,4.29,14.91,0,19.73-5-4.02-7.87-12.42-5.91-15.08-4.7Z" fill="#fff"/>
      <path id="Trazado_1223" d="M285.126,356.67a.82.82,0,0,0,.75-1.45,9.3,9.3,0,0,0-9-.08c-.29.62-.58,1.22-.88,1.8C278.786,355.47,281.6,354.88,285.126,356.67Z" fill="#fff"/>
      <path id="Trazado_1224" d="M270.8,347.21a59.471,59.471,0,0,1-3,9.29l2.45.14a6.009,6.009,0,0,1,5.27,3.91v.15a2.317,2.317,0,0,0,4.27.22l4.23-8.84-13.22-4.87Z" fill="#b27575"/>
      <path id="Trazado_1225" d="M264.236,384.09c-6.43,2.75-16.28,3.29-20.36-3.28v1.78c4.08,6.56,13.93,6,20.36,3.28s5-7.23,10.78-9.64a15.621,15.621,0,0,0,5.63-3.55,19.113,19.113,0,0,1,.2-1.94,19.416,19.416,0,0,1-5.83,3.71c-5.76,2.41-4.35,6.9-10.78,9.64Z" fill="#f5f5f5"/>
      <path id="Trazado_1226" d="M280.846,364.91a9.319,9.319,0,0,1,0-3.8,2,2,0,0,0-.29-1.68l-.71,1.49a2.317,2.317,0,0,1-4.27-.22v-.15a6.009,6.009,0,0,0-5.27-3.91l-2.49-.14a1.8,1.8,0,0,0-1.76,1.1c-2.57,6.19-9,13.07-14,16.22-3.65-.09-8.17,2.94-8.17,6.63v.36c4.08,6.57,13.93,6,20.36,3.28s5-7.23,10.78-9.64a19.416,19.416,0,0,0,5.83-3.71A20.815,20.815,0,0,0,280.846,364.91Z" fill="#455a64"/>
      <path id="Trazado_1227" d="M268.4,369.98a.81.81,0,0,0,1.412-.542.805.805,0,0,0-.142-.458,9.339,9.339,0,0,0-8.4-3.69q-.51.65-1.05,1.26A9.008,9.008,0,0,1,268.4,369.98Z" fill="#fff"/>
      <path id="Trazado_1228" d="M270.936,367.14a.814.814,0,0,0,1.14.11.823.823,0,0,0,.13-1.13,9.8,9.8,0,0,0-8.76-3.78c-.31.46-.64.92-1,1.37,3.17-.22,5.98.38,8.49,3.43Z" fill="#fff"/>
      <path id="Trazado_1229" d="M265.766,372.76a.81.81,0,0,0,1.412-.542.805.805,0,0,0-.142-.458,9.328,9.328,0,0,0-8.18-3.71c-.41.44-.83.86-1.26,1.27A9.009,9.009,0,0,1,265.766,372.76Z" fill="#fff"/>
      <path id="Trazado_1230" d="M252.046,373.82c-3.65-.09-8.17,2.94-8.17,6.63v.36c4,6.47,13.63,6,20.06,3.4-.49-8.83-8.97-10.43-11.89-10.39Z" fill="#fff"/>
      <path id="Trazado_1231" d="M263.046,375.41a.824.824,0,0,0,1.14.1.8.8,0,0,0,.13-1.12,9.307,9.307,0,0,0-8.19-3.71c-.51.46-1,.89-1.53,1.29,3.14-.22,5.94.38,8.45,3.44Z" fill="#fff"/>
      <path id="Trazado_1232" d="M308.576,263.57l-32.19,17.93a16.035,16.035,0,0,0-7.92,16.84l6.25,33.65-5.12,16.27c4.42,5.93,14.56,6.23,14.56,6.23,5.66-11.35,9.82-16.17,13-25.68s5.36-16.08,5.36-16.08l26.73-7.3a31.725,31.725,0,0,0,23.16-26.95c.46-4.05.48-6.81.48-6.81Z" fill="#005bea"/>
      <path id="Trazado_1233" d="M308.576,263.57l-32.19,17.93a16.035,16.035,0,0,0-7.92,16.84l6.25,33.65-5.12,16.27c4.42,5.93,14.56,6.23,14.56,6.23,5.66-11.35,9.82-16.17,13-25.68s5.36-16.08,5.36-16.08l26.73-7.3a31.725,31.725,0,0,0,23.16-26.95c.46-4.05.48-6.81.48-6.81Z" fill="rgba(0,0,0,0.3)"/>
      <path id="Trazado_1234" d="M308.576,263.57l-32.19,17.93a16.035,16.035,0,0,0-7.92,16.84l6.25,33.65-5.12,16.27c4.42,5.93,14.56,6.23,14.56,6.23,5.66-11.35,9.82-16.17,13-25.68s5.36-16.08,5.36-16.08l26.73-7.3a31.725,31.725,0,0,0,23.16-26.95c.46-4.05.48-6.81.48-6.81Z" fill="rgba(255,255,255,0.1)"/>
      <path id="Trazado_1235" d="M308.816,272.61a15.193,15.193,0,0,0,3.6,9.81l-22.71,14.22a16.311,16.311,0,0,0-6.95,9.06l-8,26.29,7.25-29.28a13.289,13.289,0,0,1,5.91-8.1l21-13C306.7,276.29,308.816,272.61,308.816,272.61Z" fill="rgba(0,0,0,0.2)"/>
      <path id="Trazado_1236" d="M287.276,226.61l-7.24,6.54c-4.63-5.91-10.84-9.9-16.27-18.18-1.56-2-1.4-5.93-2.46-7.95-.84-1.58-2.3-4-2.91-5.29a.88.88,0,0,0-1.33-.35c-1.49,1.14-.68,3.8.12,6.59.95,3.3-4-1.17-4.7-1.93-3.16-2.94-5.87-10.15-8-9.43s-.45,4.31-.45,4.31c-2,.42-1.23,3.58-1.23,3.58-1.17,2.07-.84,5.26,1.57,8.23,1.75,2.15,6.48,5.11,8.94,6.56a8.086,8.086,0,0,1,2.56,2.42l15.46,23.06a9.29,9.29,0,0,0,13.26,2.25l10.53-7.88-7.85-12.53Z" fill="#ffa8a7"/>
      <path id="Trazado_1237" d="M287.276,226.61l-7.24,6.54c-4.63-5.91-10.84-9.9-16.27-18.18-1.56-2-1.4-5.93-2.46-7.95-.84-1.58-2.3-4-2.91-5.29a.88.88,0,0,0-1.33-.35c-1.49,1.14-.68,3.8.12,6.59.95,3.3-4-1.17-4.7-1.93-3.16-2.94-5.87-10.15-8-9.43s-.45,4.31-.45,4.31c-2,.42-1.23,3.58-1.23,3.58-1.17,2.07-.84,5.26,1.57,8.23,1.75,2.15,6.48,5.11,8.94,6.56a8.086,8.086,0,0,1,2.56,2.42l15.46,23.06a9.29,9.29,0,0,0,13.26,2.25l10.53-7.88-7.85-12.53Z" fill="rgba(0,0,0,0.3)"/>
      <path id="Trazado_1238" d="M310.706,208.5c-7.86-.34-18.29,11.32-25,18.31a25.765,25.765,0,0,0,8.78,14.07,190.574,190.574,0,0,0,16.22-12.79V208.5Z" fill="#455a64"/>
      <path id="Trazado_1239" d="M310.706,208.5c-7.86-.34-18.29,11.32-25,18.31a25.765,25.765,0,0,0,8.78,14.07,190.574,190.574,0,0,0,16.22-12.79V208.5Z" fill="rgba(255,255,255,0.3)"/>
      <path id="Trazado_1240" d="M353.426,274.18c-5.71,5.49-33.13,6.5-47.12-6.82,1.34-9.41.89-19.48,0-29.44s-6.72-27.39,4.4-29.42c14.85-2.9,24.55-2.67,34.48,2.92C355.776,229.09,354.336,255.49,353.426,274.18Z" fill="#455a64"/>
      <path id="Trazado_1241" d="M353.426,274.18c-5.71,5.49-33.13,6.5-47.12-6.82,1.34-9.41.89-19.48,0-29.44s-6.72-27.39,4.4-29.42c14.85-2.9,24.55-2.67,34.48,2.92C355.776,229.09,354.336,255.49,353.426,274.18Z" fill="#455a64"/>
      <path id="Trazado_1242" d="M353.426,274.18c-5.71,5.49-33.13,6.5-47.12-6.82,1.34-9.41.89-19.48,0-29.44s-6.72-27.39,4.4-29.42c14.85-2.9,24.55-2.67,34.48,2.92C355.776,229.09,354.336,255.49,353.426,274.18Z" fill="rgba(255,255,255,0.2)"/>
      <path id="Trazado_1243" d="M331.336,286.01a1.242,1.242,0,0,1,0,.43,1.275,1.275,0,0,1-.16.33,2.162,2.162,0,0,1-.29.33,3,3,0,0,1-.44.31L306.9,301.09a3.748,3.748,0,0,1-.68.3l-.26.08-.34.09-.42.07h-.86a5.225,5.225,0,0,1-.56,0h-.09a4.673,4.673,0,0,1-.55-.09h-.1l-.47-.14h-.09a3.107,3.107,0,0,1-.52-.25L263.1,278.72a3.116,3.116,0,0,1-.44-.31l-.11-.12a2.087,2.087,0,0,1-.2-.23,1.194,1.194,0,0,1-.08-.15.943.943,0,0,1-.11-.22.854.854,0,0,1,0-.16,1.614,1.614,0,0,1,0-.22v1.38a1.614,1.614,0,0,0,0,.22.746.746,0,0,0,.14.38,1.2,1.2,0,0,0,.08.15,1.44,1.44,0,0,0,.2.22,1.388,1.388,0,0,0,.11.12,2.511,2.511,0,0,0,.44.32l38.86,22.43a3.146,3.146,0,0,0,.52.25h.09l.47.14h.1a4.668,4.668,0,0,0,.55.09h.09a5.225,5.225,0,0,0,.56,0h.77l.42-.08.34-.08.26-.08a3.75,3.75,0,0,0,.68-.3l23.5-13.61a3,3,0,0,0,.44-.3,2.843,2.843,0,0,0,.29-.33,1.276,1.276,0,0,0,.16-.33,1.142,1.142,0,0,0,0-.32v-1.5l.11-.07Z" fill="#e0e0e0"/>
      <path id="Trazado_1244" d="M331.336,286.01a1.242,1.242,0,0,1,0,.43,1.275,1.275,0,0,1-.16.33,2.162,2.162,0,0,1-.29.33,3,3,0,0,1-.44.31L306.9,301.09a3.748,3.748,0,0,1-.68.3l-.26.08-.34.09-.42.07h-.86a5.225,5.225,0,0,1-.56,0h-.09a4.673,4.673,0,0,1-.55-.09h-.1l-.47-.14h-.09a3.107,3.107,0,0,1-.52-.25L263.1,278.72a3.116,3.116,0,0,1-.44-.31l-.11-.12a2.087,2.087,0,0,1-.2-.23,1.194,1.194,0,0,1-.08-.15.943.943,0,0,1-.11-.22.854.854,0,0,1,0-.16,1.614,1.614,0,0,1,0-.22v1.38a1.614,1.614,0,0,0,0,.22.746.746,0,0,0,.14.38,1.2,1.2,0,0,0,.08.15,1.44,1.44,0,0,0,.2.22,1.388,1.388,0,0,0,.11.12,2.511,2.511,0,0,0,.44.32l38.86,22.43a3.146,3.146,0,0,0,.52.25h.09l.47.14h.1a4.668,4.668,0,0,0,.55.09h.09a5.225,5.225,0,0,0,.56,0h.77l.42-.08.34-.08.26-.08a3.75,3.75,0,0,0,.68-.3l23.5-13.61a3,3,0,0,0,.44-.3,2.843,2.843,0,0,0,.29-.33,1.276,1.276,0,0,0,.16-.33,1.142,1.142,0,0,0,0-.32v-1.5l.11-.07Z" fill="rgba(0,0,0,0.2)"/>
      <path id="Trazado_1245" d="M262.106,277.71a.944.944,0,0,0,.11.22,1.2,1.2,0,0,0,.08.15,2.087,2.087,0,0,0,.2.23l.11.12a3.116,3.116,0,0,0,.44.31l38.86,22.43a3.108,3.108,0,0,0,.52.25h.09l.47.14h.1a4.668,4.668,0,0,0,.55.09h.09a5.225,5.225,0,0,0,.56,0h.77l.42-.07.34-.09.26-.08a3.75,3.75,0,0,0,.68-.3l23.58-13.62a3,3,0,0,0,.44-.31,2.165,2.165,0,0,0,.29-.33,1.276,1.276,0,0,0,.16-.33,1.242,1.242,0,0,0,0-.43,1.749,1.749,0,0,0-1-1.33l-38.86-22.43a5.283,5.283,0,0,0-4.83,0l-23.5,13.6a1.733,1.733,0,0,0-1,1.4,1.614,1.614,0,0,0,0,.22.761.761,0,0,0,.07.16Z" fill="#e0e0e0"/>
      <path id="Trazado_1246" d="M265.336,277.33l37.76,21.76.14.07h.09l.29.09h.72a2.819,2.819,0,0,0,.39,0h.25l.3-.08a1.167,1.167,0,0,0,.26-.11l12.18-6.97-39-22.51-13.38,7.75Z" fill="#e0e0e0"/>
      <path id="Trazado_1248" d="M301.256,271.34l-7.1,4.18a.71.71,0,0,0,0,1.24l10.62,6.13a1.183,1.183,0,0,0,1.19,0l7.1-4.17a.72.72,0,0,0,0-1.24l-10.62-6.14a1.183,1.183,0,0,0-1.19,0Z" fill="#e0e0e0"/>
      <path id="Trazado_1249" d="M265.336,277.33l37.76,21.76.14.07h.09l.29.09h.72a2.819,2.819,0,0,0,.39,0h.25l.3-.08a1.167,1.167,0,0,0,.26-.11l12.18-6.97-39-22.51-13.38,7.75Z" fill="rgba(0,0,0,0.4)"/>
      <path id="Trazado_1250" d="M301.256,271.34l-7.1,4.18a.71.71,0,0,0,0,1.24l10.62,6.13a1.183,1.183,0,0,0,1.19,0l7.1-4.17a.72.72,0,0,0,0-1.24l-10.62-6.14a1.183,1.183,0,0,0-1.19,0Z" fill="rgba(0,0,0,0.4)"/>
      <path id="Trazado_1251" d="M304.1,299.78l-4-25.58a4.7,4.7,0,0,0-2.29-3.35l-39.15-22.76a1.17,1.17,0,0,0-1-.07l-.93.46.31.12a1.148,1.148,0,0,0-.1.69l4,25.59a4.705,4.705,0,0,0,2.29,3.34l39.11,22.76a1.447,1.447,0,0,0,.26.11v.37l.9-.44A1.173,1.173,0,0,0,304.1,299.78Z" fill="#e0e0e0"/>
      <path id="Trazado_1252" d="M304.1,299.78l-4-25.58a4.7,4.7,0,0,0-2.29-3.35l-39.15-22.76a1.17,1.17,0,0,0-1-.07l-.93.46.31.12a1.148,1.148,0,0,0-.1.69l4,25.59a4.705,4.705,0,0,0,2.29,3.34l39.11,22.76a1.447,1.447,0,0,0,.26.11v.37l.9-.44A1.173,1.173,0,0,0,304.1,299.78Z" fill="rgba(0,0,0,0.3)"/>
      <path id="Trazado_1253" d="M297,271.24l-39.13-22.75a1.18,1.18,0,0,0-1.775,1.019,1.218,1.218,0,0,0,.015.191l4,25.58a4.784,4.784,0,0,0,2.3,3.35l39.13,22.75a1.181,1.181,0,0,0,1.776-1.019,1.112,1.112,0,0,0-.016-.191l-4-25.58a4.744,4.744,0,0,0-2.3-3.35Z" fill="#e0e0e0"/>
      <path id="Trazado_1254" d="M278.036,271.9a8.667,8.667,0,0,1,3.88,5.6c.26,2-1.06,2.74-3,1.64a8.646,8.646,0,0,1-3.88-5.59c-.22-2,1.11-2.73,3-1.65Z" fill="#fff"/>
      <path id="Trazado_1255" d="M362.386,255.43l-4.2-15.62-14.73,3.28,3.53,12.11L325.4,270.53l-7.26,3.06a11.407,11.407,0,0,0-4.81,3.82l-5.92,8.2a.69.69,0,0,0-.06.35,1.13,1.13,0,0,0,2,.54c1.31-1.5,2.41-2.89,3.78-4.2l-3.49,4.71a1.411,1.411,0,0,0,.44,2,5.431,5.431,0,0,0,1.26.55,5.323,5.323,0,0,0,4.9-1.23l4.57-4.19,1.26-.44a19.145,19.145,0,0,0,9.18-6.89l25.31-9.83a9.706,9.706,0,0,0,5.83-11.55Z" fill="#ffa8a7"/>
      <path id="Trazado_1256" d="M362.386,255.43l-4.2-15.62-14.73,3.28,3.53,12.11L325.4,270.53l-7.26,3.06a11.407,11.407,0,0,0-4.81,3.82l-5.92,8.2a.69.69,0,0,0-.06.35,1.13,1.13,0,0,0,2,.54c1.31-1.5,2.41-2.89,3.78-4.2l-3.49,4.71a1.411,1.411,0,0,0,.44,2,5.431,5.431,0,0,0,1.26.55,5.323,5.323,0,0,0,4.9-1.23l4.57-4.19,1.26-.44a19.145,19.145,0,0,0,9.18-6.89l25.31-9.83a9.706,9.706,0,0,0,5.83-11.55Z" fill="rgba(0,0,0,0.3)"/>
      <path id="Trazado_1257" d="M360.5,241.85l-.45-2.07c-5.35-24.32-9.62-26.05-16.79-29.38-7,6.08-5.81,16.42-5.81,16.42l6.25,18.71.19.54a21.76,21.76,0,0,0,16.61-4.22Z" fill="#455a64"/>
      <path id="Trazado_1258" d="M360.5,241.85l-.45-2.07c-5.35-24.32-9.62-26.05-16.79-29.38-7,6.08-5.81,16.42-5.81,16.42l6.25,18.71.19.54a21.76,21.76,0,0,0,16.61-4.22Z" fill="rgba(255,255,255,0.3)"/>
      <path id="Trazado_1259" d="M333.276,190.94a44.218,44.218,0,0,0,2.33-13.68c0-2.48-.25-5.19-2-7-2.09-2.14-5.67-2.12-8.34-.77s-4.63,3.74-6.51,6.06a54.944,54.944,0,0,0,4.12,11.72c.94,1.82,2.08,3.67,3.9,4.6s4.88.33,6.5-.93Z" fill="#455a64"/>
      <path id="Trazado_1260" d="M320.066,219.51c-3.59,2.27-8.25-1.94-4.08-8.08a.213.213,0,0,0,.05-.11V201.09l13.54-7.47.31,13.67C328.436,211.52,323.186,217.53,320.066,219.51Z" fill="#ffa8a7"/>
      <path id="Trazado_1261" d="M320.066,219.51c-3.59,2.27-8.25-1.94-4.08-8.08a.213.213,0,0,0,.05-.11V201.09l13.54-7.47.31,13.67C328.436,211.52,323.186,217.53,320.066,219.51Z" fill="rgba(0,0,0,0.3)"/>
      <path id="Trazado_1262" d="M323.006,204.36c-2.26,1.09-5.08,2.19-7,2.9v-6.17l13.54-7.47C329.466,200.39,326.766,202.54,323.006,204.36Z" fill="rgba(0,0,0,0.2)"/>
      <path id="Trazado_1263" d="M304.216,174.85a114.871,114.871,0,0,0,.28,20.23,10,10,0,0,0,11.84,8.82c2.22-.46,4.34-1,6.14-1.47a9.24,9.24,0,0,0,6.56-6.76l.5-2.08a4.262,4.262,0,0,0,5.12,1.2,5.734,5.734,0,0,0,3.25-4.41,5.293,5.293,0,0,0-.24-2.79,3.669,3.669,0,0,0-1.88-2,4.1,4.1,0,0,0-4.51,1.29,8.683,8.683,0,0,0-1.82,4.6,14.2,14.2,0,0,1-3.56-10.24,5.114,5.114,0,0,1-3.28-1.68,4.464,4.464,0,0,1-.84-3.33c-5.29,2.65-12.59,1.93-17.56-1.38Z" fill="#ffa8a7"/>
      <path id="Trazado_1264" d="M304.216,174.85a114.871,114.871,0,0,0,.28,20.23,10,10,0,0,0,11.84,8.82c2.22-.46,4.34-1,6.14-1.47a9.24,9.24,0,0,0,6.56-6.76l.5-2.08a4.262,4.262,0,0,0,5.12,1.2,5.734,5.734,0,0,0,3.25-4.41,5.293,5.293,0,0,0-.24-2.79,3.669,3.669,0,0,0-1.88-2,4.1,4.1,0,0,0-4.51,1.29,8.683,8.683,0,0,0-1.82,4.6,14.2,14.2,0,0,1-3.56-10.24,5.114,5.114,0,0,1-3.28-1.68,4.464,4.464,0,0,1-.84-3.33c-5.29,2.65-12.59,1.93-17.56-1.38Z" fill="rgba(0,0,0,0.3)"/>
      <path id="Trazado_1265" d="M313.666,186.17l-4.7,5.7,4.32,1.52Z" fill="#f28f8f"/>
      <path id="Trazado_1266" d="M313.666,186.17l-4.7,5.7,4.32,1.52Z" fill="rgba(0,0,0,0.3)"/>
      <path id="Trazado_1267" d="M317.226,196.22l-3.63,1.11a2.246,2.246,0,0,0,2.45,1.13A2.005,2.005,0,0,0,317.226,196.22Z" fill="#f28f8f"/>
      <path id="Trazado_1268" d="M317.226,196.22l-3.63,1.11a2.246,2.246,0,0,0,2.45,1.13A2.005,2.005,0,0,0,317.226,196.22Z" fill="rgba(0,0,0,0.4)"/>
      <path id="Trazado_1269" d="M314.856,198.39a2.108,2.108,0,0,0,1.19.07,1.832,1.832,0,0,0,1.18-1.64,2.218,2.218,0,0,0-1.41.25,2.182,2.182,0,0,0-.96,1.32Z" fill="#f28f8f"/>
      <path id="Trazado_1270" d="M320.066,187.42a1.289,1.289,0,1,1-.328-.933A1.295,1.295,0,0,1,320.066,187.42Z" fill="#263238"/>
      <path id="Trazado_1271" d="M309.266,186.42a1.29,1.29,0,1,1-1.288-1.352l.068,0a1.3,1.3,0,0,1,1.22,1.35Z" fill="#263238"/>
      <path id="Trazado_1272" d="M308.336,181.23l-3,1.86a1.855,1.855,0,0,1,.67-2A2.163,2.163,0,0,1,308.336,181.23Z" fill="#263238"/>
      <path id="Trazado_1273" d="M319.336,181.66l2.76,2.13a1.862,1.862,0,0,0-.45-2A2.233,2.233,0,0,0,319.336,181.66Z" fill="#263238"/>
      <path id="Trazado_1274" d="M322.4,175.77a4.478,4.478,0,0,1-1.24,2.41,3.52,3.52,0,0,1-2.54,1,2.8,2.8,0,0,1-2.34-1.35,3.313,3.313,0,0,1-3.05,1.35,3.673,3.673,0,0,1-2.94-1.92,3.485,3.485,0,0,1-3.62,1.42,3.336,3.336,0,0,1-2.47-2.89,4.331,4.331,0,0,1-3.23-.46,3.194,3.194,0,0,1-1.54-2.8,2.568,2.568,0,0,1,2-2.35,3.369,3.369,0,0,1,.84-4,3.3,3.3,0,0,1,4.07-.09,2.593,2.593,0,0,1,1.53-2.29,2.553,2.553,0,0,1,2.7.52,4.07,4.07,0,0,1,7.55-1.63,3.525,3.525,0,0,1,3.28-1.75,3.3,3.3,0,0,1,2.84,2.17,4.08,4.08,0,0,1,7.48,2,2.531,2.531,0,0,1,3.47.2,3.155,3.155,0,0,1,.29,3.61,4.162,4.162,0,0,1-3.18,1.93,3.28,3.28,0,0,1-5.64,3.23,2.436,2.436,0,0,1-1.55,2.58,2.277,2.277,0,0,1-2.71-.89Z" fill="#263238"/>
    </g>
    <g id="freepik--Process--inject-6">
      <g id="freepik--process--inject-6-2">
        <path id="Trazado_1417" d="M133.495,223.746c-3.851,0-6.544-3.022-6.544-7.347v-4.721a14.847,14.847,0,0,1,6.91-11.956L229.8,144.313a8.239,8.239,0,0,1,4.128-1.185c3.858,0,6.544,3.022,6.544,7.347V155.2a14.836,14.836,0,0,1-6.9,11.956l-95.948,55.409a8.236,8.236,0,0,1-4.128,1.185Zm100.4-78.88a6.584,6.584,0,0,0-3.259.955l-95.912,55.4a12.975,12.975,0,0,0-6.037,10.455V216.4c0,3.358,1.936,5.609,4.806,5.609a6.583,6.583,0,0,0,3.292-.955l95.886-55.422a12.986,12.986,0,0,0,6.031-10.455v-4.685c0-3.371-1.927-5.623-4.8-5.623Z" fill="#e0e0e0"/>
        <path id="Trazado_1418" d="M236.676,150.489c0-3.2-2.245-4.5-5.017-2.9l-2.429,1.4-4.24,18.75,6.669-3.845a11.107,11.107,0,0,0,5.017-8.7Z" fill="#f0f0f0"/>
        <path id="Trazado_1419" d="M200.972,165.3l-4.24,18.764,12.081-6.979,4.239-18.764-12.08,6.979Z" fill="#f0f0f0"/>
        <path id="Trazado_1420" d="M215.1,157.138l-4.24,18.764,12.081-6.979,4.24-18.757Z" fill="#f0f0f0"/>
        <path id="Trazado_1421" d="M135.74,202.982a11.113,11.113,0,0,0-5.023,8.7V216.4c0,3.2,2.252,4.5,5.023,2.9l2.429-1.4,4.24-18.764-6.669,3.843Zm8.717-5.037-4.24,18.764,12.081-6.966,4.24-18.764-12.081,6.966Zm42.386-24.485-4.24,18.764,12.081-6.979,4.24-18.757Zm-28.257,16.328-4.24,18.757,12.081-6.972,4.24-18.764Zm14.129-8.164-4.24,18.764,12.081-6.979,4.24-18.764Z" fill="#005bea"/>
        <g id="Grupo_66" opacity="0.2">
          <path id="Trazado_1422" d="M135.74,202.982a11.113,11.113,0,0,0-5.023,8.7V216.4c0,3.2,2.252,4.5,5.023,2.9l2.429-1.4,4.24-18.764-6.669,3.843Zm8.717-5.037-4.24,18.764,12.081-6.966,4.24-18.764-12.081,6.966Zm42.386-24.485-4.24,18.764,12.081-6.979,4.24-18.757Zm-28.257,16.328-4.24,18.757,12.081-6.972,4.24-18.764Zm14.129-8.164-4.24,18.764,12.081-6.979,4.24-18.764Z" fill="#fff"/>
        </g>
        <path id="Trazado_1423" d="M147.275,183.17a1.1,1.1,0,0,1-.158-.718V170.161a2.191,2.191,0,0,1,.165-.915,1.317,1.317,0,0,1,.553-.579l3.377-1.975c1.317-.737,2.232-.869,2.844-.382s.909,1.554.909,3.206a9.211,9.211,0,0,1-.882,4.247,7.073,7.073,0,0,1-2.851,2.89l-1.317.757v3.437a2.088,2.088,0,0,1-.165.9,1.314,1.314,0,0,1-.566.579l-1.317.777c-.3.153-.487.179-.592.067Zm3.713-9.474a2.187,2.187,0,0,0,.882-.968,3.685,3.685,0,0,0,.309-1.58,1.763,1.763,0,0,0-.309-1.244c-.211-.191-.5-.178-.882.04l-1.086.658v3.759Z" fill="#455a64"/>
        <path id="Trazado_1424" d="M156.835,177.654a1.117,1.117,0,0,1-.158-.718V164.644a2.191,2.191,0,0,1,.165-.915,1.251,1.251,0,0,1,.546-.579l3.4-1.975q1.917-1.105,2.824-.4c.606.474.915,1.521.915,3.147a8.186,8.186,0,0,1-1.521,5.063l1.363,3.772a.762.762,0,0,1,.059.309.791.791,0,0,1-.092.369.6.6,0,0,1-.237.27l-1.936,1.146a.6.6,0,0,1-.323.1c-.079,0-.138-.086-.171-.217l-1.146-3.654-1.06.612v3.654a2.186,2.186,0,0,1-.165.9,1.314,1.314,0,0,1-.566.579l-1.317.777c-.29.132-.474.158-.58.047Zm3.647-9.6a2.637,2.637,0,0,0,1.251-2.508q0-1.811-1.185-1.126l-1.086.658v3.588l1.02-.612Z" fill="#455a64"/>
        <path id="Trazado_1425" d="M167.434,170.142q-1.243-1.243-1.244-4.852a14.866,14.866,0,0,1,1.244-6.3,8.959,8.959,0,0,1,3.654-4.069c1.6-.922,2.811-.968,3.647-.138s1.244,2.443,1.244,4.852a14.855,14.855,0,0,1-1.244,6.294A8.875,8.875,0,0,1,171.088,170C169.488,170.9,168.27,170.968,167.434,170.142Zm5.268-5.234a11,11,0,0,0,.514-3.674,6.3,6.3,0,0,0-.514-3.055c-.342-.546-.882-.619-1.606-.2a3.662,3.662,0,0,0-1.606,2.054,10.733,10.733,0,0,0-.52,3.654,6.294,6.294,0,0,0,.52,3.075c.349.553.876.619,1.606.2a3.757,3.757,0,0,0,1.6-2.054h.006Z" fill="#455a64"/>
        <path id="Trazado_1426" d="M178.66,163.7q-1.356-1.133-1.356-4.832a14.381,14.381,0,0,1,1.317-6.393,9.374,9.374,0,0,1,3.772-4.075,6.281,6.281,0,0,1,1.916-.777,2.379,2.379,0,0,1,1.435.092c.1.04.151.138.151.3a2.434,2.434,0,0,1-.092.5l-.593,1.89a.654.654,0,0,1-.224.408.412.412,0,0,1-.277,0,2.635,2.635,0,0,0-1.942.421,4.874,4.874,0,0,0-1.975,2.278,9.148,9.148,0,0,0-.7,3.753,4.122,4.122,0,0,0,.751,2.923c.494.474,1.172.467,2.021,0a6.4,6.4,0,0,0,1.975-1.857,1.518,1.518,0,0,1,.277-.3c.086-.053.158,0,.224.125l.619,1.277a.754.754,0,0,1,.079.336.982.982,0,0,1-.165.474,9.312,9.312,0,0,1-3.417,3.206c-1.63.923-2.894,1.015-3.8.251Z" fill="#455a64"/>
        <path id="Trazado_1427" d="M188.141,159.582a1.117,1.117,0,0,1-.158-.718V146.539a2.2,2.2,0,0,1,.165-.909,1.322,1.322,0,0,1,.553-.586l5.721-3.292c.257-.145.435-.165.527-.059a1.307,1.307,0,0,1,.138.737v.981a2.338,2.338,0,0,1-.138.9,1.163,1.163,0,0,1-.527.546l-3.654,2.113v2.6l2.41-1.4c.263-.145.435-.165.533-.059a1.18,1.18,0,0,1,.145.731v.935a2.229,2.229,0,0,1-.145.9,1.219,1.219,0,0,1-.533.553l-2.41,1.4v2.634l3.641-2.14c.257-.151.435-.171.527-.059a1.359,1.359,0,0,1,.132.737v.981a2.438,2.438,0,0,1-.132.876,1.226,1.226,0,0,1-.527.546L188.7,159.5c-.266.171-.451.211-.556.086Z" fill="#455a64"/>
        <path id="Trazado_1428" d="M198.514,153.781a2.509,2.509,0,0,1-1.666-.086.357.357,0,0,1-.237-.356,1.215,1.215,0,0,1,.086-.408l.658-2.048a.757.757,0,0,1,.224-.382.315.315,0,0,1,.23,0,2.684,2.684,0,0,0,1.159.053,3.634,3.634,0,0,0,1.317-.461,2.791,2.791,0,0,0,.961-.849,2.07,2.07,0,0,0,.309-1.139.849.849,0,0,0-.336-.8,3.57,3.57,0,0,0-1.264-.184,3.668,3.668,0,0,1-2.173-.56,2.7,2.7,0,0,1-.777-2.3,7.324,7.324,0,0,1,.974-3.772,7.137,7.137,0,0,1,2.635-2.634,6.653,6.653,0,0,1,1.942-.81,1.978,1.978,0,0,1,1.369.158.415.415,0,0,1,.237.369,1.323,1.323,0,0,1-.086.388l-.658,2.048a.8.8,0,0,1-.217.382.3.3,0,0,1-.237,0,2.1,2.1,0,0,0-1.9.29,2.707,2.707,0,0,0-.909.823,2.08,2.08,0,0,0-.316,1.159,1.053,1.053,0,0,0,.165.658.743.743,0,0,0,.448.263,4.676,4.676,0,0,0,.876.059h.263a5.211,5.211,0,0,1,1.606.25,1.638,1.638,0,0,1,.889.869,4.488,4.488,0,0,1,.3,1.87,7.2,7.2,0,0,1-.915,3.549,7,7,0,0,1-2.7,2.68,7.679,7.679,0,0,1-2.257.921Z" fill="#455a64"/>
        <path id="Trazado_1429" d="M207.411,148.652a2.554,2.554,0,0,1-1.666-.086.357.357,0,0,1-.237-.356,1.215,1.215,0,0,1,.086-.408l.658-2.048a.816.816,0,0,1,.224-.382.334.334,0,0,1,.237,0,2.684,2.684,0,0,0,1.159.053,3.662,3.662,0,0,0,1.277-.461,2.681,2.681,0,0,0,.961-.856,2.039,2.039,0,0,0,.309-1.132.849.849,0,0,0-.336-.8,3.375,3.375,0,0,0-1.264-.184,3.708,3.708,0,0,1-2.173-.56,2.711,2.711,0,0,1-.777-2.3,7.247,7.247,0,0,1,.994-3.779,7.132,7.132,0,0,1,2.633-2.634,6.653,6.653,0,0,1,1.942-.81,1.972,1.972,0,0,1,1.369.151.433.433,0,0,1,.237.375,1.151,1.151,0,0,1-.086.388l-.659,2.041a.835.835,0,0,1-.224.382.334.334,0,0,1-.237,0,2.112,2.112,0,0,0-1.9.29,2.707,2.707,0,0,0-.909.823,2.08,2.08,0,0,0-.316,1.159,1.053,1.053,0,0,0,.165.658.782.782,0,0,0,.448.263,4.284,4.284,0,0,0,.876.053h.263a5,5,0,0,1,1.606.25,1.638,1.638,0,0,1,.889.869,4.488,4.488,0,0,1,.3,1.87,7.2,7.2,0,0,1-.915,3.549,7,7,0,0,1-2.7,2.68,7.686,7.686,0,0,1-2.238.941h0Z" fill="#455a64"/>
      </g>
    </g>
    <g id="freepik--button--inject-6">
      <path id="Trazado_1736" d="M223.468,189.455a2.147,2.147,0,0,0-.891-1.975l-4.781-2.762a2.155,2.155,0,0,0-2.168.208l-56.014,32.345a6.74,6.74,0,0,0-3.058,5.293v15.018a2.149,2.149,0,0,0,.891,1.975l4.781,2.762a2.141,2.141,0,0,0,2.16-.215l56.026-32.338a6.767,6.767,0,0,0,3.058-5.3Z" fill="#005bea"/>
      <path id="Trazado_1737" d="M162.291,242.34h-.059c-.549-.319-4.224-2.435-4.773-2.762a2.14,2.14,0,0,1-.9-1.982V222.564a5.953,5.953,0,0,1,.638-2.509l4.766,2.754a6.1,6.1,0,0,0-.624,2.517v15.018a2.091,2.091,0,0,0,.95,2l0,0Z" fill="rgba(0,0,0,0.2)"/>
      <path id="Trazado_1738" d="M222.436,187.4a2.229,2.229,0,0,0-2.019.29L164.4,220.028a6.491,6.491,0,0,0-2.435,2.776l-4.751-2.754a6.423,6.423,0,0,1,2.4-2.784l56.016-32.338a2.177,2.177,0,0,1,2.16-.215c.52.295,3.794,2.181,4.647,2.686Z" fill="rgba(255,255,255,0.2)"/>
      <path id="Trazado_1812" d="M177.34,217.327a3.341,3.341,0,0,1,1.462-.489,2.137,2.137,0,0,1,1.15.244,1.951,1.951,0,0,1,.756.788,2.464,2.464,0,0,1,.285,1.118.8.8,0,0,1-.081.344.53.53,0,0,1-.177.226l-1.63.942a.454.454,0,0,1-.281.081.48.48,0,0,1-.217-.1l-.118-.122a.62.62,0,0,0-.231-.145.791.791,0,0,0-.371-.032,1.479,1.479,0,0,0-.548.208,3.342,3.342,0,0,0-.453.312,2.533,2.533,0,0,0-.385.376,1.655,1.655,0,0,0-.272.453,1.349,1.349,0,0,0-.109.539.6.6,0,0,0,.118.412.547.547,0,0,0,.4.122,3.349,3.349,0,0,0,.738-.109l1.145-.3a3.869,3.869,0,0,1,1.2-.154,1.447,1.447,0,0,1,.851.321,1.76,1.76,0,0,1,.507.856,5.185,5.185,0,0,1,.168,1.462,6.449,6.449,0,0,1-.285,1.906,7.765,7.765,0,0,1-.8,1.775,8.168,8.168,0,0,1-1.218,1.535,7.58,7.58,0,0,1-1.535,1.173,3.734,3.734,0,0,1-1.539.543,2.055,2.055,0,0,1-1.2-.217,1.939,1.939,0,0,1-.792-.815,2.725,2.725,0,0,1-.29-1.263.8.8,0,0,1,.077-.344.508.508,0,0,1,.181-.226l1.63-.942a.5.5,0,0,1,.272-.091.422.422,0,0,1,.2.086l.149.163a.844.844,0,0,0,.267.2.815.815,0,0,0,.421.072,1.522,1.522,0,0,0,.629-.226,4.664,4.664,0,0,0,1.1-.856,1.507,1.507,0,0,0,.453-1.05.426.426,0,0,0-.158-.385.832.832,0,0,0-.484-.072,4.4,4.4,0,0,0-.828.158c-.335.1-.729.2-1.186.3a1.8,1.8,0,0,1-1.87-.326,3.4,3.4,0,0,1-.593-2.291,6.4,6.4,0,0,1,.244-1.707,7.9,7.9,0,0,1,.684-1.7,8.006,8.006,0,0,1,1.114-1.553,6.253,6.253,0,0,1,1.458-1.2Z" fill="#fff"/>
      <path id="Trazado_1813" d="M188.251,211.173a.18.18,0,0,1,.235,0,.4.4,0,0,1,.1.308v2.028a.948.948,0,0,1-.1.421.625.625,0,0,1-.235.29l-2.187,1.263V225.3a.948.948,0,0,1-.1.421.63.63,0,0,1-.235.29l-1.63.942a.185.185,0,0,1-.235,0,.412.412,0,0,1-.1-.3v-9.815l-2.186,1.262a.185.185,0,0,1-.235,0,.411.411,0,0,1-.1-.308V215.76a.962.962,0,0,1,.1-.421.66.66,0,0,1,.235-.29l6.673-3.876Z" fill="#fff"/>
      <path id="Trazado_1814" d="M192.929,208.471c.163-.1.29-.1.376,0a.692.692,0,0,1,.181.317l2.716,10.49a.983.983,0,0,1,.05.258.776.776,0,0,1-.081.344.5.5,0,0,1-.2.235l-1.566.9c-.162.093-.28.107-.353.041a.456.456,0,0,1-.131-.24l-.349-1.385-3.3,1.906-.344,1.788a1.574,1.574,0,0,1-.131.394.856.856,0,0,1-.353.367l-1.566.9a.146.146,0,0,1-.2,0,.324.324,0,0,1-.081-.249,1.789,1.789,0,0,1,.05-.317l2.716-13.614a2.5,2.5,0,0,1,.177-.525.961.961,0,0,1,.38-.43l2-1.19Zm-2.015,9.507,2.015-1.164-1.01-3.98Z" fill="#fff"/>
      <path id="Trazado_1815" d="M200.525,204.1a4.5,4.5,0,0,1,1.467-.579,1.579,1.579,0,0,1,1.1.172,1.726,1.726,0,0,1,.693.964,5.526,5.526,0,0,1,.244,1.811,8.219,8.219,0,0,1-.385,2.6,6.782,6.782,0,0,1-1.1,2.078l1.544,3.663a.562.562,0,0,1,.036.19.773.773,0,0,1-.081.34.451.451,0,0,1-.2.235l-1.689.978c-.163.1-.281.109-.353.032a.824.824,0,0,1-.168-.244l-1.358-3.3-1.141.661v4.075a1.025,1.025,0,0,1-.1.421.653.653,0,0,1-.235.29l-1.63.942a.185.185,0,0,1-.235,0,.411.411,0,0,1-.1-.308v-12.36a.99.99,0,0,1,.1-.421.641.641,0,0,1,.235-.285l3.351-1.955Zm-1.4,6.61,1.4-.81a2.668,2.668,0,0,0,.865-.806,2.3,2.3,0,0,0,.34-1.308q0-.8-.34-.9a1.115,1.115,0,0,0-.865.19l-1.4.81Z" fill="#fff"/>
      <path id="Trazado_1816" d="M211.376,197.832a.185.185,0,0,1,.235,0,.4.4,0,0,1,.1.308v2.028a.948.948,0,0,1-.1.421.653.653,0,0,1-.235.29l-2.187,1.259v9.815a.948.948,0,0,1-.1.421.63.63,0,0,1-.235.29l-1.63.942a.185.185,0,0,1-.235,0,.4.4,0,0,1-.1-.3v-9.815l-2.187,1.263a.185.185,0,0,1-.235,0,.411.411,0,0,1-.1-.308v-2.028a.962.962,0,0,1,.1-.421.66.66,0,0,1,.235-.29l6.674-3.875Z" fill="#fff"/>
    </g>
    <g id="freepik--Datas">
      <path id="Trazado_1185" d="M257.009,268.85l-13.4-9.358a.835.835,0,0,1-.331-.686V160.24l-17.292-11.806.674-1.372,17.623,12.04a.827.827,0,0,1,.344.686V258.4l13.075,9.077-.688,1.373Z" fill="#005bea"/>
      <path id="Trazado_1186" d="M257.256,264.79a8,8,0,0,1,3.61,6.26c0,2.3-1.63,3.23-3.64,2.07a8.007,8.007,0,0,1-3.61-6.26c.01-2.3,1.64-3.23,3.64-2.07Z" fill="#005bea"/>
      <path id="Trazado_1187" d="M228.121,144.392a8.006,8.006,0,0,1,3.62,6.26c0,2.3-1.64,3.23-3.64,2.07a8.006,8.006,0,0,1-3.62-6.26C224.451,144.172,226.121,143.242,228.121,144.392Z" fill="#005bea"/>
    </g>
  </g>
</svg>
